<?xml version="1.0" encoding="utf-8"?>
<!-- Generator: Adobe Illustrator 16.0.0, SVG Export Plug-In . SVG Version: 6.00 Build 0)  -->
<!DOCTYPE svg PUBLIC "-//W3C//DTD SVG 1.1//EN" "http://www.w3.org/Graphics/SVG/1.1/DTD/svg11.dtd">
<svg version="1.1" id="Layer_27" xmlns="http://www.w3.org/2000/svg" xmlns:xlink="http://www.w3.org/1999/xlink" x="0px" y="0px"
	 width="150px" height="150px" viewBox="0 0 150 150" enable-background="new 0 0 150 150" xml:space="preserve">
<path opacity="0.9" fill-rule="evenodd" clip-rule="evenodd" d="M137.834,33.688c0,27.542,0,55.084,0,82.626
	c-0.229,0.096-0.146,0.311-0.168,0.476c-1.248,9.335-7.84,16.661-17.004,18.873c-0.971,0.235-1.957,0.402-2.934,0.601
	c-28.59,0-57.18,0-85.77,0c-0.243-0.31-0.617-0.207-0.925-0.258c-9.222-1.542-16.227-8.086-18.342-17.133
	c-0.199-0.85-0.185-1.74-0.525-2.559c0-27.595,0-55.189,0-82.783c0.3-0.335,0.235-0.771,0.294-1.162
	c1.324-8.711,8.242-16.116,16.865-18.023c0.979-0.217,1.964-0.406,2.947-0.608c28.484,0,56.969,0,85.455,0
	c0.043,0.172,0.184,0.141,0.309,0.153c9.217,0.911,17.127,7.91,19.197,16.945C137.451,31.784,137.465,32.773,137.834,33.688z
	 M40.441,72.75c0,8.717,0,17.435,0,26.151c0,0.236,0.005,0.472,0.002,0.707c-0.007,0.486,0.222,0.719,0.715,0.718
	c3.298-0.004,6.597-0.002,9.895,0c0.479,0,0.732-0.231,0.733-0.718c0.001-0.445,0.002-0.89,0.002-1.335
	c0-4.896,0.011-9.792-0.014-14.687c-0.003-0.628,0.179-0.828,0.794-0.778c0.755,0.06,1.517,0.05,2.275,0.065
	c4.574,0.104,9.12-0.086,13.461-1.712c5.595-2.096,9.433-5.906,11.019-11.761c0.701-2.597,0.883-5.256,0.57-7.939
	c-0.787-6.786-4.274-11.611-10.515-14.401c-3.624-1.619-7.482-2.12-11.406-2.164c-5.367-0.063-10.728,0.213-16.094,0.292
	c-1.438,0.021-1.438,0.019-1.438,1.488C40.441,55.367,40.441,64.058,40.441,72.75z M85.645,93.606c0,0.969,0,1.938,0,2.905
	c0,2.49-0.008,2.516,2.344,3.296c5.166,1.711,10.459,2.042,15.807,1.207c3.035-0.475,5.848-1.561,8.205-3.645
	c4.742-4.19,5.479-11.71,1.59-16.45c-1.15-1.399-2.623-2.377-4.16-3.294c-2.621-1.563-5.514-2.504-8.287-3.72
	c-1.266-0.555-2.566-1.071-3.592-2.047c-1.559-1.482-1.043-3.613,1.025-4.21c0.754-0.218,1.525-0.365,2.318-0.375
	c4.021-0.047,7.92,0.529,11.576,2.319c0.973,0.477,1.445,0.181,1.449-0.885c0.004-2.225,0.002-4.45,0.002-6.674
	c0-2.391,0.008-2.422-2.291-3.05c-3.826-1.045-7.732-1.25-11.672-1.011c-2.996,0.182-5.816,0.945-8.396,2.532
	c-6.49,3.994-7.719,12.895-2.947,18.089c1.738,1.89,3.891,3.147,6.131,4.299c2.236,1.148,4.668,1.836,6.93,2.934
	c0.92,0.448,1.822,0.924,2.49,1.733c0.922,1.116,0.668,2.705-0.574,3.459c-0.352,0.214-0.752,0.366-1.148,0.483
	c-1.348,0.394-2.734,0.468-4.123,0.405c-4.16-0.187-8.113-1.146-11.768-3.206c-0.688-0.388-0.896-0.269-0.902,0.509
	C85.635,90.676,85.645,92.141,85.645,93.606z"/>
<path opacity="0.4" fill-rule="evenodd" clip-rule="evenodd" d="M40.441,72.75c0-8.692,0-17.383,0-26.074
	c0-1.469,0-1.467,1.438-1.488c5.366-0.078,10.727-0.354,16.094-0.292c3.923,0.044,7.782,0.545,11.406,2.164
	c6.241,2.79,9.728,7.615,10.515,14.401c0.313,2.683,0.131,5.342-0.57,7.939c-1.586,5.855-5.424,9.666-11.019,11.761
	c-4.341,1.626-8.888,1.815-13.461,1.712c-0.759-0.016-1.52-0.006-2.275-0.065c-0.615-0.05-0.797,0.15-0.794,0.778
	c0.025,4.895,0.014,9.791,0.014,14.687c0,0.445-0.001,0.89-0.002,1.335c-0.001,0.486-0.253,0.718-0.733,0.718
	c-3.298-0.002-6.597-0.004-9.895,0c-0.493,0.001-0.722-0.231-0.715-0.718c0.003-0.235-0.002-0.471-0.002-0.707
	C40.441,90.185,40.441,81.467,40.441,72.75z M51.872,64.068c0,2.723-0.001,5.445,0.002,8.167c0,0.323-0.098,0.705,0.453,0.714
	c3.424,0.062,6.857,0.269,10.192-0.82c5.258-1.718,6.608-5.372,5.936-9.974c-0.534-3.646-2.979-5.601-6.422-6.465
	c-3.175-0.796-6.404-0.392-9.613-0.436c-0.521-0.006-0.555,0.313-0.554,0.726C51.877,58.677,51.872,61.372,51.872,64.068z"/>
<path opacity="0.4" fill-rule="evenodd" clip-rule="evenodd" d="M85.645,93.606c0-1.466-0.01-2.931,0.006-4.396
	c0.006-0.777,0.215-0.896,0.902-0.509c3.654,2.06,7.607,3.02,11.768,3.206c1.389,0.063,2.775-0.012,4.123-0.405
	c0.396-0.117,0.797-0.27,1.148-0.483c1.242-0.754,1.496-2.343,0.574-3.459c-0.668-0.81-1.57-1.285-2.49-1.733
	c-2.262-1.098-4.693-1.785-6.93-2.934c-2.24-1.151-4.393-2.409-6.131-4.299c-4.771-5.194-3.543-14.095,2.947-18.089
	c2.58-1.587,5.4-2.351,8.396-2.532c3.939-0.238,7.846-0.034,11.672,1.011c2.299,0.628,2.291,0.66,2.291,3.05
	c0,2.224,0.002,4.45-0.002,6.674c-0.004,1.065-0.477,1.362-1.449,0.885c-3.656-1.79-7.555-2.366-11.576-2.319
	c-0.793,0.01-1.564,0.156-2.318,0.375c-2.068,0.597-2.584,2.728-1.025,4.21c1.025,0.976,2.326,1.493,3.592,2.047
	c2.773,1.215,5.666,2.156,8.287,3.72c1.537,0.917,3.01,1.895,4.16,3.294c3.889,4.74,3.152,12.26-1.59,16.45
	c-2.357,2.084-5.17,3.17-8.205,3.645c-5.348,0.835-10.641,0.504-15.807-1.207c-2.352-0.78-2.344-0.806-2.344-3.296
	C85.645,95.544,85.645,94.575,85.645,93.606z"/>
<path opacity="0.9" fill-rule="evenodd" clip-rule="evenodd" d="M51.872,64.068c0-2.696,0.006-5.391-0.006-8.088
	c-0.001-0.413,0.033-0.731,0.554-0.726c3.209,0.044,6.438-0.361,9.613,0.436c3.443,0.865,5.888,2.819,6.422,6.465
	c0.672,4.602-0.677,8.255-5.936,9.974c-3.335,1.089-6.768,0.881-10.192,0.82c-0.551-0.009-0.453-0.391-0.453-0.714
	C51.871,69.513,51.872,66.791,51.872,64.068z"/>
</svg>
