<?xml version="1.0" encoding="utf-8"?>
<!-- Generator: Adobe Illustrator 16.0.0, SVG Export Plug-In . SVG Version: 6.00 Build 0)  -->
<!DOCTYPE svg PUBLIC "-//W3C//DTD SVG 1.1//EN" "http://www.w3.org/Graphics/SVG/1.1/DTD/svg11.dtd">
<svg version="1.1" id="Layer_28" xmlns="http://www.w3.org/2000/svg" xmlns:xlink="http://www.w3.org/1999/xlink" x="0px" y="0px"
	 width="150px" height="150px" viewBox="0 0 150 150" enable-background="new 0 0 150 150" xml:space="preserve">
<g id="vlpb" opacity="0.4">
	<g id="vlpc">
		<g id="vlpd">
			<path d="M34.34,13.737h80.871c12.262,0,22.175,9.913,22.175,22.174v77.74c0,12.262-9.913,22.174-22.175,22.174H34.34
				c-12.261,0-22.174-9.912-22.174-22.174v-77.74C12.166,23.65,22.08,13.737,34.34,13.737z"/>
		</g>
	</g>
</g>
<g opacity="0.9">
	<path d="M66.95,67.947c-0.522-1.618-0.991-3.184-1.513-4.801c-0.522-1.617-0.992-3.347-1.409-4.86C63.61,56.825,63.245,56,62.88,54
		h-0.104c-0.47,3-1.044,4.704-1.774,6.947c-0.783,2.504-1.565,5.127-2.4,7.735C57.871,71.344,57.088,74,56.306,76h13.252
		c-0.313-1-0.73-2.305-1.2-3.661C67.889,70.93,67.419,69.512,66.95,67.947z"/>
	<path d="M137,36.174C137,23.928,127.072,14,114.825,14h-80.65C21.928,14,12,23.928,12,36.174v77.652
		C12,126.072,21.928,136,34.175,136h80.65c12.247,0,22.175-9.928,22.175-22.174V36.174z M88.706,100H77.802
		c-0.365,0-0.73-0.213-0.835-0.578L72.688,87H53.28l-3.965,12.266C49.211,99.734,48.792,100,48.323,100h-9.808
		c-0.574,0-0.73-0.427-0.574-1.053l16.8-48.422c0.157-0.522,0.313-1.125,0.522-1.751c0.208-1.095,0.313-2.147,0.313-3.296
		C55.523,45.219,55.732,45,55.993,45h0.157h13.356c0.417,0,0.626,0.047,0.679,0.309l19.044,53.798
		C89.385,99.681,89.229,100,88.706,100z M107,99.199c0,0.574-0.502,0.801-0.972,0.801H95.802C95.28,100,95,99.721,95,99.199V59.025
		C95,58.503,95.229,58,95.697,58h10.331c0.47,0,0.972,0.556,0.972,1.025V99.199z M105.611,52.086c-1.2,1.252-2.974,1.93-4.748,1.826
		c-1.723,0.052-3.392-0.626-4.644-1.826c-1.2-1.305-1.826-3.025-1.773-4.801c-0.053-1.773,0.626-3.443,1.878-4.643
		c1.252-1.201,2.921-1.826,4.644-1.826c2.035,0,3.601,0.625,4.748,1.826c1.147,1.252,1.773,2.922,1.721,4.643
		C107.489,49.061,106.863,50.781,105.611,52.086z"/>
</g>
</svg>
