<?xml version="1.0" encoding="utf-8"?>
<!-- Generator: Adobe Illustrator 16.0.0, SVG Export Plug-In . SVG Version: 6.00 Build 0)  -->
<!DOCTYPE svg PUBLIC "-//W3C//DTD SVG 1.1//EN" "http://www.w3.org/Graphics/SVG/1.1/DTD/svg11.dtd">
<svg version="1.1" id="Layer_29" xmlns="http://www.w3.org/2000/svg" xmlns:xlink="http://www.w3.org/1999/xlink" x="0px" y="0px"
	 width="150px" height="150px" viewBox="0 0 150 150" enable-background="new 0 0 150 150" xml:space="preserve">
<path opacity="0.55" d="M34.596,14.002h80.809c12.251,0,22.156,9.907,22.156,22.158v77.682c0,12.25-9.905,22.156-22.156,22.156
	H34.596c-12.251,0-22.156-9.906-22.156-22.156V36.16C12.439,23.909,22.345,14.002,34.596,14.002z"/>
<g opacity="0.8">
	<path d="M90.015,67.336c-2.033,0-4.067,0.417-5.891,1.356c-1.772,0.886-3.285,2.189-4.433,3.857
		c-1.146,1.669-1.721,3.91-1.721,6.623c-0.052,1.824,0.262,3.648,0.887,5.369c0.521,1.408,1.303,2.658,2.347,3.701
		c0.989,0.939,2.189,1.668,3.545,2.086c1.408,0.469,2.868,0.678,4.327,0.678c0.782,0,1.44-0.053,2.118-0.104
		C91.873,90.953,93,90.85,93,90.641V67.702c0-0.105-0.867-0.208-1.336-0.261C91.09,67.389,90.588,67.336,90.015,67.336z"/>
	<path d="M137,36.158C137,23.92,127.08,14,114.844,14H34.156C21.92,14,12,23.92,12,36.158v77.684C12,126.08,21.92,136,34.156,136
		h80.688C127.08,136,137,126.08,137,113.842V36.158z M58,99.609c0,0.57-0.361,0.391-0.831,0.391H46.952
		C46.483,100,46,100.18,46,99.609v-53.7C46,45.44,46.534,45,47.003,45h10.166c0.313,0,0.677,0.271,0.729,0.638
		C57.95,45.689,58,45.858,58,45.909V99.609z M104.56,97.834c-2.71,1.148-5.578,1.982-8.497,2.502
		c-2.606,0.471-5.318,0.732-8.028,0.732c-3.858,0.051-7.718-0.732-11.21-2.348c-3.284-1.512-5.996-4.014-7.873-7.09
		c-1.928-3.18-2.866-7.141-2.866-11.887c-0.053-3.858,0.938-7.664,2.866-11c1.982-3.388,4.849-6.205,8.29-8.08
		c3.649-2.033,8.029-3.024,13.19-3.024c0.261,0,0.554,0,1.024,0.051C91.925,57.743,93,57.743,93,57.796V41.321
		C93,40.957,93.299,41,93.663,41h10.584c0.261,0,0.753-0.095,0.753,0.113v0.105V90.85c0,0.938-0.064,1.98-0.012,3.129
		c0.104,1.094,0.1,2.135,0.151,3.023C105.14,97.365,104.925,97.678,104.56,97.834z"/>
</g>
</svg>
