<?xml version="1.0" encoding="utf-8"?>
<!-- Generator: Adobe Illustrator 16.0.0, SVG Export Plug-In . SVG Version: 6.00 Build 0)  -->
<!DOCTYPE svg PUBLIC "-//W3C//DTD SVG 1.1//EN" "http://www.w3.org/Graphics/SVG/1.1/DTD/svg11.dtd">
<svg version="1.1" id="Layer_31" xmlns="http://www.w3.org/2000/svg" xmlns:xlink="http://www.w3.org/1999/xlink" x="0px" y="0px"
	 width="150px" height="150px" viewBox="0 0 150 150" enable-background="new 0 0 150 150" xml:space="preserve">
<path d="M98.829,94.705H87.905L75.356,59.104l-7.045,19.476h10.844l2.98,8.476H65.665l-2.851,7.661H51.891l17.428-45.235h12.071
	L98.829,94.705z M118.721,108.435c-0.809,0-1.565,0.394-2.031,1.053c0,0-2.17,2.483-3.342,3.65
	c-21.065,21.095-55.242,21.119-76.337,0.056C15.915,92.128,15.889,57.95,36.955,36.854c19.536-19.564,50.694-21.204,72.177-3.799
	c-1.093,3.176,0.596,6.637,3.771,7.73c3.177,1.094,6.639-0.595,7.731-3.771c1.094-3.177-0.596-6.638-3.771-7.731
	c-1.408-0.485-2.946-0.436-4.32,0.137c-25.172-20.625-62.3-16.938-82.924,8.235c-20.625,25.173-16.938,62.299,8.234,82.923
	c25.035,20.514,61.929,16.994,82.635-7.882c0.977-0.965,0.987-2.535,0.024-3.511c-0.472-0.479-1.116-0.745-1.787-0.74
	L118.721,108.435z"/>
</svg>
