<?xml version="1.0" encoding="utf-8"?>
<!-- Generator: Adobe Illustrator 16.0.0, SVG Export Plug-In . SVG Version: 6.00 Build 0)  -->
<!DOCTYPE svg PUBLIC "-//W3C//DTD SVG 1.1//EN" "http://www.w3.org/Graphics/SVG/1.1/DTD/svg11.dtd">
<svg version="1.1" id="aws" xmlns="http://www.w3.org/2000/svg" xmlns:xlink="http://www.w3.org/1999/xlink" x="0px" y="0px"
	 width="150px" height="150px" viewBox="0 0 150 150" enable-background="new 0 0 150 150" xml:space="preserve">
<g>
	<path d="M47.601,64.726c0,1.545,0.167,2.799,0.458,3.717c0.334,0.919,0.752,1.921,1.337,3.007c0.208,0.335,0.292,0.669,0.292,0.961
		c0,0.418-0.25,0.835-0.793,1.253l-2.632,1.754c-0.375,0.251-0.752,0.377-1.086,0.377c-0.417,0-0.835-0.209-1.252-0.585
		c-0.585-0.627-1.086-1.295-1.504-1.964c-0.418-0.709-0.835-1.503-1.295-2.464c-3.258,3.843-7.351,5.765-12.279,5.765
		c-3.508,0-6.307-1.003-8.353-3.008c-2.047-2.005-3.091-4.678-3.091-8.02c0-3.55,1.253-6.432,3.801-8.604
		c2.548-2.172,5.931-3.258,10.233-3.258c1.419,0,2.881,0.126,4.427,0.334c1.545,0.209,3.132,0.543,4.803,0.919v-3.049
		c0-3.174-0.668-5.388-1.963-6.683c-1.336-1.295-3.592-1.921-6.808-1.921c-1.462,0-2.965,0.167-4.511,0.543
		c-1.545,0.375-3.049,0.835-4.511,1.42c-0.668,0.293-1.169,0.459-1.461,0.543c-0.292,0.083-0.501,0.125-0.668,0.125
		c-0.584,0-0.876-0.418-0.876-1.294v-2.047c0-0.669,0.083-1.17,0.292-1.462c0.209-0.293,0.584-0.585,1.169-0.877
		c1.462-0.752,3.216-1.379,5.262-1.88c2.047-0.543,4.219-0.793,6.516-0.793c4.971,0,8.604,1.127,10.943,3.383
		c2.297,2.255,3.467,5.68,3.467,10.274v13.532H47.601z M30.644,71.074c1.378,0,2.798-0.251,4.302-0.752
		c1.503-0.502,2.84-1.42,3.968-2.674c0.668-0.793,1.169-1.67,1.42-2.673c0.25-1.002,0.417-2.213,0.417-3.634v-1.754
		c-1.211-0.292-2.506-0.543-3.843-0.71c-1.336-0.166-2.631-0.251-3.926-0.251c-2.798,0-4.845,0.543-6.223,1.672
		c-1.378,1.127-2.047,2.714-2.047,4.803c0,1.963,0.501,3.424,1.545,4.427C27.26,70.572,28.722,71.074,30.644,71.074z M64.182,75.585
		c-0.753,0-1.254-0.126-1.588-0.418c-0.334-0.251-0.626-0.836-0.877-1.629l-9.814-32.285c-0.25-0.836-0.376-1.379-0.376-1.671
		c0-0.668,0.334-1.044,1.002-1.044h4.093c0.793,0,1.336,0.125,1.629,0.418c0.334,0.25,0.584,0.835,0.835,1.629l7.017,27.648
		l6.515-27.648c0.209-0.836,0.459-1.379,0.794-1.629c0.333-0.251,0.918-0.418,1.67-0.418h3.341c0.794,0,1.337,0.125,1.671,0.418
		c0.334,0.25,0.627,0.835,0.794,1.629l6.599,27.983l7.225-27.983c0.251-0.836,0.543-1.379,0.837-1.629
		c0.334-0.251,0.877-0.418,1.629-0.418h3.883c0.669,0,1.045,0.334,1.045,1.044c0,0.209-0.042,0.418-0.084,0.669
		c-0.041,0.25-0.125,0.584-0.292,1.044L91.664,73.579c-0.251,0.836-0.543,1.379-0.877,1.63c-0.335,0.25-0.878,0.417-1.587,0.417
		h-3.593c-0.793,0-1.336-0.125-1.67-0.417c-0.334-0.293-0.626-0.836-0.794-1.671L76.67,46.599l-6.433,26.897
		c-0.208,0.835-0.459,1.378-0.793,1.671c-0.334,0.292-0.919,0.418-1.671,0.418H64.182z M117.851,76.712
		c-2.172,0-4.343-0.251-6.432-0.752s-3.718-1.044-4.803-1.67c-0.668-0.376-1.128-0.794-1.295-1.17s-0.251-0.793-0.251-1.17v-2.13
		c0-0.877,0.335-1.295,0.961-1.295c0.251,0,0.501,0.043,0.752,0.126s0.626,0.251,1.044,0.417c1.42,0.627,2.966,1.129,4.595,1.463
		c1.67,0.333,3.299,0.501,4.97,0.501c2.631,0,4.678-0.46,6.099-1.378c1.419-0.92,2.171-2.256,2.171-3.968
		c0-1.171-0.376-2.131-1.128-2.924c-0.751-0.794-2.172-1.504-4.218-2.172l-6.056-1.879c-3.05-0.962-5.305-2.382-6.683-4.261
		c-1.378-1.838-2.089-3.884-2.089-6.057c0-1.754,0.376-3.3,1.128-4.636c0.752-1.337,1.754-2.506,3.007-3.425
		c1.253-0.961,2.673-1.671,4.344-2.172s3.425-0.71,5.263-0.71c0.919,0,1.88,0.042,2.798,0.167c0.961,0.125,1.838,0.292,2.715,0.46
		c0.835,0.208,1.629,0.417,2.381,0.668s1.336,0.501,1.755,0.751c0.584,0.335,1.002,0.669,1.252,1.045
		c0.251,0.334,0.376,0.793,0.376,1.378v1.963c0,0.877-0.333,1.337-0.961,1.337c-0.333,0-0.876-0.167-1.587-0.501
		c-2.381-1.087-5.054-1.629-8.019-1.629c-2.381,0-4.261,0.376-5.556,1.169c-1.293,0.794-1.962,2.005-1.962,3.718
		c0,1.169,0.418,2.171,1.253,2.965s2.381,1.587,4.594,2.298l5.931,1.879c3.007,0.961,5.18,2.298,6.474,4.01
		c1.295,1.713,1.922,3.675,1.922,5.847c0,1.797-0.376,3.425-1.086,4.845c-0.752,1.421-1.754,2.673-3.05,3.676
		c-1.294,1.044-2.839,1.796-4.635,2.339C121.944,76.42,119.98,76.712,117.851,76.712z"/>
	<g opacity="0.5">
		<path d="M125.745,97.011c-13.741,10.149-33.706,15.537-50.872,15.537c-24.057,0-45.734-8.896-62.106-23.682
			c-1.294-1.169-0.125-2.756,1.42-1.838c17.709,10.275,39.552,16.498,62.148,16.498c15.244,0,31.993-3.175,47.403-9.689
			C126.037,92.793,128,95.34,125.745,97.011z"/>
		<path d="M131.468,90.495c-1.755-2.255-11.612-1.086-16.081-0.543c-1.337,0.167-1.546-1.003-0.334-1.88
			c7.852-5.513,20.758-3.926,22.261-2.088c1.504,1.879-0.417,14.785-7.769,20.967c-1.127,0.961-2.213,0.46-1.712-0.794
			C129.504,102.022,133.221,92.708,131.468,90.495z"/>
	</g>
</g>
</svg>
