<?xml version="1.0" encoding="utf-8"?>
<!-- Generator: Adobe Illustrator 16.0.0, SVG Export Plug-In . SVG Version: 6.00 Build 0)  -->
<!DOCTYPE svg PUBLIC "-//W3C//DTD SVG 1.1//EN" "http://www.w3.org/Graphics/SVG/1.1/DTD/svg11.dtd">
<svg version="1.1" id="axios" xmlns="http://www.w3.org/2000/svg" xmlns:xlink="http://www.w3.org/1999/xlink" x="0px" y="0px"
	 width="150px" height="150px" viewBox="0 0 150 150" enable-background="new 0 0 150 150" xml:space="preserve">
<g>
	<path d="M74.539,68.114l-4.626,3.769h3.021v12.25l1.605-1.293V68.114z"/>
	<path d="M75.872,81.746l4.707-3.863h-3.105V65.914l-1.601,1.115V81.746z"/>
	<path d="M134.135,70.315c0.533,0.277,0.917,0.512,1.151,0.704l1.664-3.168c-0.832-0.512-1.834-0.971-3.007-1.376
		c-1.152-0.405-2.4-0.608-3.744-0.608c-1.28,0-2.464,0.214-3.552,0.641c-1.066,0.427-1.92,1.056-2.56,1.888
		c-0.619,0.832-0.929,1.866-0.929,3.104c0,1.387,0.438,2.453,1.313,3.2c0.896,0.726,2.261,1.323,4.096,1.792
		c1.472,0.384,2.655,0.735,3.552,1.056c0.917,0.299,1.375,0.8,1.375,1.504c0,1.045-0.98,1.568-2.943,1.568
		c-0.98,0-1.909-0.118-2.784-0.353c-0.874-0.234-1.642-0.522-2.303-0.864c-0.641-0.341-1.099-0.65-1.376-0.928l-1.729,3.359
		c1.109,0.705,2.379,1.26,3.808,1.664c1.43,0.406,2.869,0.608,4.319,0.608c1.26,0,2.433-0.171,3.521-0.512
		c1.088-0.362,1.963-0.938,2.624-1.728c0.683-0.812,1.023-1.878,1.023-3.201c0-1.087-0.256-1.962-0.769-2.623
		c-0.49-0.683-1.204-1.227-2.143-1.632c-0.918-0.405-2.005-0.769-3.265-1.088c-1.43-0.342-2.517-0.65-3.264-0.928
		c-0.726-0.277-1.087-0.747-1.087-1.408c0-1.131,1.002-1.696,3.007-1.696c0.746,0,1.472,0.107,2.176,0.32
		C133.016,69.804,133.623,70.038,134.135,70.315z"/>
	<path d="M100.461,84.011c-1.407,0-2.687-0.245-3.839-0.736c-1.152-0.512-2.145-1.194-2.977-2.048
		c-0.832-0.875-1.472-1.855-1.92-2.943c-0.447-1.088-0.673-2.208-0.673-3.36c0-1.173,0.235-2.304,0.705-3.392
		c0.469-1.088,1.131-2.048,1.983-2.88c0.854-0.854,1.855-1.525,3.008-2.016c1.152-0.491,2.41-0.736,3.776-0.736
		c1.407,0,2.688,0.267,3.84,0.8c1.151,0.513,2.134,1.205,2.944,2.08c0.832,0.854,1.471,1.824,1.919,2.912
		c0.447,1.088,0.672,2.197,0.672,3.327c0,1.174-0.234,2.305-0.703,3.393c-0.47,1.066-1.132,2.026-1.985,2.88
		c-0.832,0.832-1.822,1.493-2.975,1.983C103.086,83.766,101.827,84.011,100.461,84.011z M94.957,74.955
		c0,0.96,0.225,1.877,0.673,2.752c0.447,0.853,1.076,1.547,1.888,2.08c0.832,0.533,1.823,0.8,2.975,0.8
		c1.174,0,2.166-0.277,2.977-0.832c0.812-0.576,1.429-1.291,1.855-2.145c0.427-0.874,0.641-1.77,0.641-2.688
		c0-0.96-0.224-1.866-0.672-2.72s-1.088-1.536-1.92-2.048c-0.811-0.533-1.781-0.8-2.912-0.8c-1.173,0-2.176,0.277-3.008,0.832
		c-0.811,0.555-1.429,1.259-1.856,2.111C95.171,73.152,94.957,74.038,94.957,74.955z"/>
	<path d="M12.346,83.883l7.808-17.887h3.167l7.776,17.887h-4.096l-1.792-4.191h-6.944l-1.792,4.191H12.346z M21.752,70.699
		l-2.624,5.632h5.152L21.752,70.699z"/>
	<path d="M46.225,65.996l4.927,6.335l4.928-6.335h4.191L53.2,75.051l6.848,8.832h-4.191l-4.704-6.079l-4.671,6.079h-4.256
		l6.879-8.832L42,65.996H46.225z"/>
</g>
</svg>
