<?xml version="1.0" encoding="utf-8"?>
<!-- Generator: Adobe Illustrator 16.0.0, SVG Export Plug-In . SVG Version: 6.00 Build 0)  -->
<!DOCTYPE svg PUBLIC "-//W3C//DTD SVG 1.1//EN" "http://www.w3.org/Graphics/SVG/1.1/DTD/svg11.dtd">
<svg version="1.1" id="svg10" xmlns="http://www.w3.org/2000/svg" xmlns:xlink="http://www.w3.org/1999/xlink" x="0px" y="0px"
	 width="150px" height="150px" viewBox="0 0 150 150" enable-background="new 0 0 150 150" xml:space="preserve">
<path id="path8_1_" opacity="0.7" d="M127.227,44.501c1.458,1.364,1.43,3.422,1.43,5.04c0,10.723-0.09,41.22,0.025,51.941
	c0.012,1.119-0.358,2.297-0.912,3.185L73.85,75.001L127.227,44.501z"/>
<g>
	<path opacity="0.4" d="M35.445,75.001c0-21.832,17.723-39.556,39.555-39.556c14.475,0,27.141,7.794,34.034,19.407l18.198-10.38
		c-0.52-0.681-1.102-1.198-1.864-1.628c-9.445-5.289-37.778-21.074-47.224-26.363c-1.913-1.07-4.504-1.093-6.416-0.022
		c-9.446,5.292-38.033,21.213-47.479,26.502C22.337,44.029,21,46.007,21,48.148c0,10.581,0,42.423,0,53.001
		c0,1.285,0.267,2.24,1.018,3.246L40.252,94.04C37.14,88.39,35.445,81.902,35.445,75.001z"/>
	<path opacity="0.4" d="M75,55.224c-10.923,0-19.778,8.854-19.778,19.777c0,3.338,0.835,6.479,2.295,9.236l34.336-19.585
		C88.374,58.997,82.129,55.224,75,55.224z"/>
</g>
<g>
	<path opacity="0.75" d="M75,94.778c7.268,0,13.615-3.922,17.053-9.763L73.85,75.001l23.93-13.674l-5.896,3.369
		c-0.002-0.004-0.005-0.007-0.008-0.011L57.518,84.238C60.836,90.505,67.416,94.778,75,94.778z"/>
	<path opacity="0.75" d="M127.38,44.479l-0.114,0.065c1.413,1.364,1.391,3.394,1.391,4.996c0,10.723-0.09,41.22,0.025,51.941
		c0.012,1.119-0.358,2.297-0.912,3.185l-18.385-10.115c-6.811,11.943-19.663,20.004-34.385,20.004
		c-14.938,0-27.948-8.299-34.678-20.532l-18.225,10.372C21.346,103.39,21,102.435,21,101.149c0,0.168,0,0.347,0,0.506
		c0,2.153,1.34,4.139,3.256,5.216c9.481,5.32,38.086,21.334,47.565,26.654c1.916,1.076,4.317,1.076,6.236,0
		c9.481-5.32,38.187-21.334,47.665-26.654c1.919-1.077,3.278-3.066,3.278-5.219c0-10.641,0-42.666,0-53.306
		C129,46.907,128.304,45.548,127.38,44.479z"/>
</g>
</svg>
