<?xml version="1.0" encoding="utf-8"?>
<!-- Generator: Adobe Illustrator 16.0.0, SVG Export Plug-In . SVG Version: 6.00 Build 0)  -->
<!DOCTYPE svg PUBLIC "-//W3C//DTD SVG 1.1//EN" "http://www.w3.org/Graphics/SVG/1.1/DTD/svg11.dtd">
<svg version="1.1" id="svg3476" xmlns="http://www.w3.org/2000/svg" xmlns:xlink="http://www.w3.org/1999/xlink" x="0px" y="0px"
	 width="150px" height="150px" viewBox="0 0 150 150" enable-background="new 0 0 150 150" xml:space="preserve">
<path opacity="0.7" d="M20.231,13L30.2,124.752l44.733,12.39l44.857-12.394L129.769,13H20.231z M111.247,117.547L75,127.607v-14.229
	l-0.062,0.018l-28.09-7.832L44.926,84h6.344h7.422l0.977,10.914L74.94,99H75V77H44.313l-1.229-14H75V49H41.861l-1.247-13h34.338H75
	V22h44.774L111.247,117.547z"/>
<g opacity="0.6">
	<polygon points="90.247,94.889 91.839,77 75,77 75,99.11 	"/>
	<polygon points="94.275,49 75,49 75,63 93.028,63 	"/>
	<polygon points="75,22 75,36 109.304,36 106.828,63.626 106.494,67.243 103.271,103.313 103.065,105.613 75,113.376 75,127.607 
		111.247,117.547 119.774,22 	"/>
</g>
</svg>
