<?xml version="1.0" encoding="utf-8"?>
<!-- Generator: Adobe Illustrator 16.0.0, SVG Export Plug-In . SVG Version: 6.00 Build 0)  -->
<!DOCTYPE svg PUBLIC "-//W3C//DTD SVG 1.1//EN" "http://www.w3.org/Graphics/SVG/1.1/DTD/svg11.dtd">
<svg version="1.1" id="express" xmlns="http://www.w3.org/2000/svg" xmlns:xlink="http://www.w3.org/1999/xlink" x="0px" y="0px"
	 width="150px" height="150px" viewBox="0 0 150 150" enable-background="new 0 0 150 150" xml:space="preserve">
<g>
	<path d="M11.85,58.382h17.966v2.915H15.312v8.273h13.521v2.916H15.312v9.001h14.614v2.916H11.85V58.382z"/>
	<path d="M38.669,74.489l-6.56-8.928h3.972l4.519,6.596l4.702-6.596h3.717l-6.487,8.673l7.288,10.168h-3.972l-5.248-7.799
		l-5.248,7.799H31.6L38.669,74.489z"/>
	<path d="M52.589,65.561h3.098v2.551h0.072c1.021-2.078,3.426-2.988,6.013-2.988c5.794,0,8.674,4.591,8.674,9.912
		c0,5.321-2.843,9.804-8.601,9.804c-1.932,0-4.701-0.729-6.086-2.952h-0.072v9.73h-3.098V65.561z M61.335,67.857
		c-4.155,0-5.758,3.572-5.758,7.106c0,3.717,1.676,7.143,5.94,7.143c4.228,0,5.649-3.608,5.649-7.289
		C67.166,71.283,65.343,67.857,61.335,67.857z"/>
	<path d="M73.979,65.561h2.916v3.972h0.072c1.494-3.025,3.572-4.519,6.925-4.409v3.28c-4.993,0-6.815,2.842-6.815,7.616v8.383
		h-3.097V65.561z"/>
	<path d="M101.639,78.426c-0.839,4.154-3.827,6.414-8.054,6.414c-6.014,0-8.856-4.154-9.039-9.913c0-5.648,3.718-9.803,8.856-9.803
		c6.669,0,8.709,6.231,8.527,10.787H87.827c-0.11,3.28,1.748,6.195,5.866,6.195c2.552,0,4.337-1.239,4.884-3.681H101.639z
		 M98.65,73.178c-0.146-2.952-2.369-5.321-5.43-5.321c-3.244,0-5.176,2.442-5.394,5.321H98.65z"/>
	<path d="M107.029,78.462c0.11,2.77,2.515,3.645,5.066,3.645c1.932,0,4.555-0.438,4.555-2.807c0-2.405-3.062-2.806-6.158-3.498
		c-3.062-0.692-6.159-1.713-6.159-5.321c0-3.79,3.753-5.356,7.034-5.356c4.153,0,7.47,1.312,7.725,5.903h-3.097
		c-0.22-2.405-2.333-3.17-4.373-3.17c-1.859,0-4.009,0.51-4.009,2.405c0,2.223,3.279,2.587,6.159,3.28
		c3.097,0.692,6.158,1.713,6.158,5.357c0,4.482-4.19,5.94-8.017,5.94c-4.229,0-7.8-1.713-7.981-6.378H107.029z"/>
	<path d="M125.25,78.462c0.109,2.77,2.515,3.645,5.065,3.645c1.932,0,4.556-0.438,4.556-2.807c0-2.405-3.062-2.806-6.158-3.498
		c-3.062-0.692-6.16-1.713-6.16-5.321c0-3.79,3.754-5.356,7.034-5.356c4.154,0,7.471,1.312,7.726,5.903h-3.097
		c-0.22-2.405-2.333-3.17-4.374-3.17c-1.859,0-4.009,0.51-4.009,2.405c0,2.223,3.279,2.587,6.159,3.28
		c3.097,0.692,6.158,1.713,6.158,5.357c0,4.482-4.19,5.94-8.017,5.94c-4.228,0-7.799-1.713-7.981-6.378H125.25z"/>
</g>
</svg>
