<?xml version="1.0" encoding="utf-8"?>
<!-- Generator: Adobe Illustrator 16.0.0, SVG Export Plug-In . SVG Version: 6.00 Build 0)  -->
<!DOCTYPE svg PUBLIC "-//W3C//DTD SVG 1.1//EN" "http://www.w3.org/Graphics/SVG/1.1/DTD/svg11.dtd">
<svg version="1.1" id="Layer_24" xmlns="http://www.w3.org/2000/svg" xmlns:xlink="http://www.w3.org/1999/xlink" x="0px" y="0px"
	 width="150px" height="150px" viewBox="0 0 150 150" enable-background="new 0 0 150 150" xml:space="preserve">
<path opacity="0.3" d="M87.86,54.895L77.407,35.033c-0.263-0.459-0.657-0.854-1.116-1.116c-1.314-0.657-2.89-0.197-3.546,1.116
	L67.09,45.834l10.322,19.538L87.86,54.895z"/>
<path opacity="0.3" d="M66.708,45.839L52.19,18.747c-0.395-0.722-1.117-1.248-1.905-1.379c-1.445-0.263-2.824,0.723-3.021,2.167
	l-14.058,89.842l0.063,0.035L66.708,45.839z"/>
<polygon opacity="0.4" points="33.416,109.494 77.412,65.372 67.09,45.834 66.9,46.197 66.708,45.839 33.27,109.412 "/>
<path opacity="0.15" d="M105.514,41.731c-1.051-1.05-2.692-1.05-3.743,0L88.111,55.391l-54.274,54.34l37.2,20.852
	c2.364,1.314,5.319,1.314,7.683,0l38.189-21.223l-10.673-66.183C106.17,42.585,105.907,42.125,105.514,41.731z"/>
<polygon opacity="0.2" points="87.914,54.997 87.86,54.895 77.412,65.372 33.416,109.494 33.417,109.494 "/>
<path opacity="0.1" d="M47.265,19.535c0.197-1.444,1.576-2.43,3.021-2.167c0.788,0.131,1.51,0.657,1.905,1.379l14.518,27.092
	l0.192,0.358l0.19-0.363l5.655-10.801c0.657-1.313,2.232-1.773,3.546-1.116c0.459,0.262,0.854,0.657,1.116,1.116L87.86,54.895
	l0.054,0.103l-54.497,54.497l0.42,0.236l54.274-54.34l13.659-13.659c1.051-1.05,2.692-1.05,3.743,0
	c0.394,0.394,0.656,0.854,0.723,1.445l10.673,66.183l0.069-0.039L106.236,42.52c-0.263-1.445-1.576-2.364-3.021-2.167
	c-0.524,0.065-1.051,0.329-1.444,0.722l-13.659,13.66L77.407,34.311c-0.657-1.313-2.233-1.773-3.546-1.116
	c-0.46,0.262-0.854,0.657-1.117,1.116L66.9,45.475L52.19,18.025c-0.657-1.248-2.299-1.773-3.547-1.05
	c-0.722,0.394-1.248,1.116-1.379,1.904l-14.16,90.44l0.102,0.058L47.265,19.535z"/>
<path opacity="0.3" d="M116.909,109.359L78.72,130.582c-2.363,1.314-5.318,1.314-7.683,0l-37.2-20.852l-0.402,0.402l37.602,21.106
	c2.364,1.313,5.319,1.313,7.683,0l38.282-21.304L116.909,109.359z"/>
<rect x="33.281" y="109.438" width="0.001" height="0.384"/>
<rect x="33.281" y="109.438" width="0.001" height="0.384"/>
<polygon points="116.909,109.359 117.002,109.936 117.071,109.896 116.979,109.32 "/>
<polygon points="116.909,109.359 117.002,109.936 117.071,109.896 116.979,109.32 "/>
<polygon opacity="0.3" points="33.837,109.73 33.417,109.494 33.146,109.766 33.146,109.765 33.172,109.597 33.207,109.377 
	33.105,109.319 33.015,109.896 33.435,110.133 "/>
</svg>
