<?xml version="1.0" encoding="utf-8"?>
<!-- Generator: Adobe Illustrator 16.0.0, SVG Export Plug-In . SVG Version: 6.00 Build 0)  -->
<!DOCTYPE svg PUBLIC "-//W3C//DTD SVG 1.1//EN" "http://www.w3.org/Graphics/SVG/1.1/DTD/svg11.dtd">
<svg version="1.1" id="flask" xmlns="http://www.w3.org/2000/svg" xmlns:xlink="http://www.w3.org/1999/xlink" x="0px" y="0px"
	 width="150px" height="150px" viewBox="0 0 150 150" enable-background="new 0 0 150 150" xml:space="preserve">
<g id="layer1_1_" transform="translate(-27.820801,-24.714976)" >
	<path id="path2900" d="M77.302,143.899c-4.832-3.8-9.987-7.443-13.51-12.575c-7.412-9.05-13.119-19.528-17.02-30.537
		c-2.358-7.16-3.166-14.835-6.206-21.718c-3.18-4.999,0.545-10.463,6.021-12.052c2.438-0.468,6.724-2.768,1.551-1.125
		c-4.64,3.404-5.088-3.089-0.332-3.5c3.247-0.432,4.441-3.089,3.332-5.482c-3.485-2.272,8.45-4.769,2.444-8.161
		c-6.255-6.75,8.751-8.048,5.048-0.383c-0.886,5.894,10.486-1.081,7.848,5.726c2.682,3.269,10.043,0.744,9.86,5.329
		c3.907,0.269,5.247,3.557,8.915,3.809c3.801,1.716,10.691,3.069,11.984,7.352c-3.771,2.985-12.502-6.167-12.922,2.097
		c1.141,12.208,0.849,24.783,5.316,36.407c2.112,7.04,7.233,12.58,11.859,18.064c4.426,5.369,10.419,9.148,16.529,12.33
		c5.359,2.528,11.138,4.204,16.979,5.257c2.369-1.812,6.553-8.55,10.248-5.707c0.175,3.19-7.337,6.671-0.354,6.318
		c4.1-1.236,6.943,3.171,10.318-0.806c3.111,3.685,12.93-2.354,10.716,5.179c-2.992,1.929-7.357,0.764-10.354,3.419
		c-4.942-2.468-8.878,2.209-14.35,1.617c-6.076,1.089-12.258,1.528-18.417,1.538c-10.107-0.799-20.426-1.136-30.042-4.655
		C87.347,150.068,82.063,146.985,77.302,143.899z M85.838,147.598c5.288,2.285,10.459,4.697,16.254,5.422
		c9.195,1.281,18.692,3.249,27.92,1.453c-4.177-1.886-8.493,0.734-12.655-1.348c-4.989,1.073-10.345-0.274-15.418-0.938
		c-5.77-2.568-11.995-4.335-17.398-7.673c-6.75-2.466,3.492,3.164,5.315,3.619c4.219,2.396-4.641-1.228-5.891-2.225
		c-3.534-1.983-3.985-1.569-0.35,0.443C84.347,146.783,85.07,147.233,85.838,147.598L85.838,147.598z M75.773,140.485
		c5.125,1.899-0.022-3.604-2.371-3.284c-1.04-1.803-3.975-2.945-1.904-3.913c-3.724,1.291-3.901-4.918-5.652-4.03
		c-3.939-1.245-1.533-5.649-6.227-8.355c-0.427-2.852-4.661-5.326-6.012-9.628c-0.596-2.2-4.783-8.523-2.211-2.638
		c2.19,5.663,6.043,10.516,9.25,15.362c2.49,4.612,5.43,9.436,9.965,12.314C72.14,137.78,73.615,140.026,75.773,140.485z
		 M61.01,124.277C61.189,123.503,61.948,125.95,61.01,124.277z M81.912,142.761C83.046,142.252,80.278,142.12,81.912,142.761z
		 M84.693,143.776C84.405,142.375,83.423,144.559,84.693,143.776z M88.176,145.229C89.833,143.649,85.62,144.234,88.176,145.229z
		 M94.144,148.553C95.151,147.065,90.919,147.993,94.144,148.553z M82.683,140.566C85.257,138.901,79.357,140.543,82.683,140.566z
		 M85.295,141.868C85.223,140.989,84.365,142.261,85.295,141.868z M98.352,150.017c2.099,1.325,12.255,2.903,5.895,0.545
		C103.184,150.784,92.453,147.527,98.352,150.017z M77.625,133.876C77.42,132.99,74.367,132.899,77.625,133.876z M83.702,137.417
		C85.284,136.313,80.419,136.567,83.702,137.417z M88.815,140.552C91.085,139.694,85.133,139.691,88.815,140.552z M75.151,131.181
		c2.463,1.888,9.933,0.24,3.772-1.127c-2.805-1.497-9.124-2.52-4.816,0.899L75.151,131.181L75.151,131.181z M92.278,141.634
		C93.304,139.887,87.977,140.637,92.278,141.634z M87.074,137.497c6.022,1.705-5.064-3.809-1.486-0.627l0.792,0.359L87.074,137.497
		L87.074,137.497z M97.507,143.528C103.21,143.582,92.356,142.743,97.507,143.528L97.507,143.528z M72.957,127.88
		C72.734,126.818,71.55,127.97,72.957,127.88z M107.155,148.942C107.308,147.023,105.294,150.367,107.155,148.942z M82.689,133.84
		C82.345,132.831,80.908,133.8,82.689,133.84z M73.498,127.213C76.772,127.017,69.015,125.772,73.498,127.213z M62.608,120.176
		C62.201,118.605,59.046,117.354,62.608,120.176z M91.195,138.316C90.596,137.633,90.914,138.468,91.195,138.316z M108.99,149.235
		C108.932,148.192,108.02,149.633,108.99,149.235z M89.621,136.692C89.941,135.344,86.83,136.285,89.621,136.692z M76.365,128.289
		C78.801,128.029,72.462,126.642,76.365,128.289z M98.789,142.225C102.585,140.722,95.088,141.488,98.789,142.225z M87.125,134.307
		c4.375,0.564-5.206-2.977-0.96-0.314L87.125,134.307L87.125,134.307z M102.33,143.655c4.083-2.441,2.738,5.719,6.929,0.689
		c4.136-3.021-3.571,3.733,1.525,0.54c3.686-2.468,9.128,1.165,12.568,2.352c2.471-0.12,4.876,2.138,7.412,0.764
		c4.879-1.314-9.544-1.95-5.763-4.28c-4.467,1.299-7.766-1.551-9.962-4.411c-5.009-1.155-10.801-3.717-13.301-8.15
		c-1.02-1.662,1.473,0.236-0.88-2.485c-3.018-2.685-4.525-5.732-6.552-8.997c-2.42-1.289-2.702-5.092-2.946-0.125
		c0.019-3.133-2.923-5.243-3.641-4.366c-0.013-3.017,3.148-1.506,0.935-3.737c-0.477-3.129-2.044-6.386-2.516-9.918
		c-0.732-1.702-0.103-5.348-2.499-1.495c-0.874,4.072-0.29-5.005,1.067-2.01c1.782-3.055-0.639-2.696-0.738-2.271
		c1.16-2.577,0.734-6.232-0.304-4.837c0.618-2.731,0.978-10.052-0.926-8.754c1.153-2.857,2.188-13.07-2.819-9.175
		c-2.03,0.028-5.544,0.736-7.206,1.563c5.208,2.87-0.524,1.036-2.644,0.58c-0.277,2.657-2.376,1.507-5,1.534
		c4.19,0.519-2.041,4.285-4.446,2.823c-3.123,1.492,2.695,5.218,0.063,6.369c0.323,1.736-4.784-0.627-4.382,3.382
		c-3.031-1.276-0.417,4.757,1.099,2.718c5.155,1.395,3.629,4.574,3.761,7.595c-0.841,1.762-4.148-4.137-0.737-3.864
		c-2.691-4.369-2.977-1.58-5.212,0.451c-0.52,0.147,5.704,2.889,1.798,4.244c3.437,0.531,3.533,3.539,4.233,5.442
		c2.065,2.148,1.642-2.377,4.113,0.209c-1.563-2.302-8.282-6.49-2.872-5.146c-0.03-2.316-0.979-4.186,0.678-4.141
		c1.641-2.972-1.719,7.329,1.98,3.552c1.024-0.448,1.278-2.976,3.119,0.237c2.673,2.633,0.965,4.538-2.806,2.128
		c0.674,2.289,5.045,3.108,4.224,6.688c0.87,3.148,2.088,1.988,3.15,1.805c0.833,3.062,1.307,0.813,1.346-0.645
		c3.814,0.818,2.92,3.072,4.114,4.647c2.628,1.188-3.762-8.041,0.75-2.775c4.747,4.286,1.78,6.075-2.48,5.389
		c2.697-0.217,3.567,3.646,6.939,3.51c3.076,1.463,5.158,7.082-0.144,4.743c-1.838-1.66-8.345-3.704-3.031-0.551
		c4.909,2.273,8.807,3.635,13.542,6.486c3.387,2.418,4.852,5.189,6.135,5.736c-2.847,1.361-8.581-1.084-4.323-1.836
		c-2.655-0.482-5.643-1.825-3.099,1.483c2.163,1.805,7.662,1.613,8.648,1.818c-0.836,1.843-2.27,1.99,0.036,2.133
		C98.696,142.662,102.091,142.872,102.33,143.655L102.33,143.655z M97.073,128.811c-1.564-1.636-1.969-4.699-0.278-2.035
		C97.662,127.126,99.572,131.783,97.073,128.811L97.073,128.811z M114.193,139.686C115.167,139.623,114.221,140.427,114.193,139.686
		z M94.603,124.799C94.543,122.326,95.169,126.709,94.603,124.799z M92.902,122.51C90.935,118.71,95.382,123.587,92.902,122.51z
		 M72.284,108.281C73.439,107.971,72.852,110.256,72.284,108.281z M88.694,117.175C89.403,114.509,89.527,119.413,88.694,117.175z
		 M77.1,109.113C76.283,107.643,78.81,110.492,77.1,109.113z M87.049,112.304c-1.863-4.177,1.32-2.28,0.413,0.683L87.049,112.304
		L87.049,112.304z M69.893,100.862c-0.834-1.37-2.212-5.391-1.768-6.618c0.4,1.999,4.248,8.601,1.887,2.735
		c-2.61-4.917,3.12,1.598,3.709,2.823c0.273,1.218-1.611-0.333-0.333,2.527C71.059,99.073,72.013,104.129,69.893,100.862z
		 M64.589,97.208C64.808,94.024,65.803,99.392,64.589,97.208z M66.975,98.029C68.112,95.624,68.905,101.38,66.975,98.029z
		 M61.237,93.589c-1.974-1.959-3.403-3.769,0.093-1.216c1.346,0.051-2.992-4.112,0.325-1.323
		C65.142,91.685,63.376,96.768,61.237,93.589z M64.251,93.513C65.398,92.375,64.859,94.629,64.251,93.513z M66.105,94.106
		C64.367,90.849,68.215,95.472,66.105,94.106z M62.419,90.583c-5.739-5.107,7.211,2.671,0.937,0.946L62.419,90.583L62.419,90.583
		L62.419,90.583z M78.862,100.135c-2.482-1.488-0.657-10.482,0.189-4.329c2.414-0.783-0.134,3.175,1.668,3.14
		C80.435,101.443,79.629,102.339,78.862,100.135z M84.944,103.732C85.187,101.021,85.457,105.583,84.944,103.732z M83.888,102.688
		C84.161,101.529,83.917,104.051,83.888,102.688z M63.545,88.905c-3.687-5.09,10.716,5.145,2.361,1.29
		C65.033,89.965,63.982,89.885,63.545,88.905z M75.257,95.115C74.908,90.831,76.036,95.824,75.257,95.115L75.257,95.115z
		 M84.148,100.818C84.837,98.379,84.2,102.433,84.148,100.818z M64.109,86.962c2.191-0.466,9.082,3.852,2.753,1.234
		C66.16,87.417,64.662,87.772,64.109,86.962z M82.927,96.342c0.234-4.38,1.308-2.615,0.008,0.627L82.927,96.342L82.927,96.342
		L82.927,96.342z M65.741,85.44c0.893-1.31-2.371-5.923,0.47-1.656c1.227,0.978,3.554,1.633,1.5,2.044
		C70.94,88.68,66.923,86.6,65.741,85.44z M81.997,94.974C82.612,89.985,82.54,97.897,81.997,94.974z M63.876,80.831
		C64.557,80.539,64.237,81.739,63.876,80.831z M68.116,83.355C69.207,81.065,70.128,85.909,68.116,83.355z M80.077,90.007
		C80.064,89.128,80.302,91.286,80.077,90.007z M79.384,88.475C77.724,84.378,80.928,90.643,79.384,88.475z M78.364,85.788
		C78.085,84.097,79.311,87.917,78.364,85.788L78.364,85.788z M80.023,83.093c-1.139-2.007,1.439-8.847,1.727-4.605
		c-1.204,3.306-0.348,5.154,0.492,0.721C83.791,75.719,81.906,86.091,80.023,83.093L80.023,83.093z M81.729,72.922
		C82.224,72.312,81.838,73.657,81.729,72.922z M78.882,129.019C78.207,128.429,78.965,129.394,78.882,129.019z M84.746,131.984
		c3.262,0.839,3.245-0.506,0.298-0.905c-1.586-1.478-6.59-3.039-2.112-0.184C83.228,131.647,84.167,131.629,84.746,131.984
		L84.746,131.984z M73.163,124.29c1.798,1.344,6.77,3.8,2.56,0.514c1.419-1.651-2.715-2.526-1.344-3.631
		c-3.49-2.135-2.752-1.945-0.308-1.879c-4.194-1.874,0.604-1.733,0.379-2.695c-1.618-0.318-8.031-2.849-4.258,0.208
		c-3.835-1.955-0.914,0.729-2.074,0.446c-3.923-1.071,3.494,2.985-0.623,1.981c2.251,1.78,6.058,4.567,0.952,1.885
		C67.774,122.09,72.101,123.556,73.163,124.29z M79.297,127.816C86.755,130.219,75.641,124.879,79.297,127.816z M110.696,146.837
		C110.792,145.358,109.676,148.098,110.696,146.837z M113.922,148.196c1.722-1.669,0.071,2.655,2.852-0.411
		c0.03-2.19-0.085-3.487-3.195-0.823C112.721,147.438,112.338,149.459,113.922,148.196z M62.694,116.022
		C62.166,113.946,58.99,113.955,62.694,116.022z M66.141,118.281C64.86,116.159,61.575,116.36,66.141,118.281z M85.745,130.105
		c1.915,1.7,8.792,1.248,2.325,0.21C87.113,128.896,81.989,129.239,85.745,130.105z M112.696,146.75
		C115.642,144.276,109.841,147.853,112.696,146.75z M118.823,150.958C118.841,150.164,117.553,151.307,118.823,150.958z
		 M118.832,149.847C122.094,146.391,115.67,150.053,118.832,149.847L118.832,149.847z M54.218,108.926
		c-2.78-3.967-1.728-5.748-4.41-8.987c-0.506-2.477-4.6-8.099-2.116-2.144C49.967,101.277,50.643,106.67,54.218,108.926z
		 M117.808,148.749C123.81,144.869,115.345,147.061,117.808,148.749z M122.39,150.543
		C125.396,147.964,120.489,150.003,122.39,150.543z M61.673,111.637C62.533,110.359,59.452,111.474,61.673,111.637z
		 M121.434,149.318c2.909-1.877-0.67-1.587-0.527,0.172L121.434,149.318L121.434,149.318z M81.941,124.424
		C81.84,123.156,80.403,124.533,81.941,124.424z M84.382,125.83C83.605,124.264,83.188,126.075,84.382,125.83z M126.103,150.586
		c3.729-2.689-2.261-0.516-0.782,0.511L126.103,150.586L126.103,150.586z M124.675,149.897
		C127.713,147.351,121.469,151.026,124.675,149.897z M131.97,154.754C134.008,153.391,129.493,154.312,131.97,154.754z
		 M63.543,110.715c2.733,0.611,10.923,6.729,6.091,0.424c-2.475-0.731-0.991-6.782-3.514-5.712c1.693,2.829,1.395,4.034-2.164,2.249
		c-4.47-2.182-2.512,1.083-1.639,1.981C61.127,109.93,63.893,110.693,63.543,110.715z M51.09,100.88
		c0.488-2.021-4.505-11.134-2.358-4.565C49.506,97.692,49.428,100.3,51.09,100.88z M73.946,114.973
		C72.54,113.794,73.88,114.805,73.946,114.973z M77.413,115.778C77.411,113.634,73.582,114.907,77.413,115.778z M107.449,134.715
		C106.875,133.249,105.183,134.679,107.449,134.715L107.449,134.715z M108.891,135.768
		C108.677,134.946,108.059,135.924,108.891,135.768z M120.794,143.265C121.941,142.419,119.367,143.158,120.794,143.265z
		 M57.31,102.469C60.585,101.201,53.801,101.565,57.31,102.469z M104.803,132.39C104.768,130.27,102.716,132.916,104.803,132.39z
		 M56.017,99.452C58.121,98.743,54.07,98.986,56.017,99.452z M62.123,102.41C62.085,101.714,61.477,102.674,62.123,102.41z
		 M136.6,148.08c2.704-0.549,8.868,1.377,9.864-0.717c-3.283-0.078-11.365-2.318-11.746,0.533l0.718,0.114L136.6,148.08
		L136.6,148.08z M64.063,102.902C64.111,100.751,62.388,102.818,64.063,102.902z M48.009,91.763
		C47.279,87.672,45.235,91.143,48.009,91.763z M51.838,92.727C51.884,91.411,48.333,91.543,51.838,92.727z M54.025,93.8
		C53.393,93.29,53.53,94.447,54.025,93.8z M67.791,102.629C68.439,102.035,66.257,102.192,67.791,102.629z M52.568,91.378
		C52.198,88.285,48.134,90.913,52.568,91.378z M44.719,86.283C44.607,84.858,43.955,86.823,44.719,86.283z M45.887,85.402
		C45.696,83.711,44.884,85.618,45.887,85.402z M52.337,89.253c2.728-1.071-4.969-2.215-0.558-0.203L52.337,89.253z M138.669,142.577
		C140.416,140.981,136.451,142.085,138.669,142.577z M149.098,147.986C149.799,145.916,147.338,148.259,149.098,147.986z
		 M52.997,85.873C53.284,83.869,50.833,86.27,52.997,85.873z M43.818,79.723c-0.493-2.827-0.425-7.788,4.291-6.111
		c-6.296,1.25,4.356,7.825,3.011,2.634c2.647,0.129,5.178-1.565,3.79,1.005c5.214-0.576,8.83-5.097,13.867-4.463
		c3.924-0.52,8.214-0.914,12.443-2.494c3.477-0.25,6.823-3.993,4.917-6.212c-4.741-0.401-9.704,0.192-14.944,1.234
		c-5.808,1.208-11.082,3.501-16.941,4.485c-5.711,0.768,1.148,2.114-0.487,2.415c-2.98,1.034,3.554,1.731-0.386,2.821
		c-2.433-0.463-4.966-1.299-3.927-3.865c-5.47,0.711-10.277,2.982-5.956,8.548L43.818,79.723L43.818,79.723L43.818,79.723z
		 M57.001,73.009c1.282-4.726,6.871,3.888,2.102,0.628C58.534,73.211,57.597,72.863,57.001,73.009z M57.25,70.718
		C59.101,69.339,58.235,71.491,57.25,70.718z M59.602,70.756c0.166-2.174,5.379,1.151,0.859,0.782L59.602,70.756L59.602,70.756z
		 M62.816,69.463C63.99,68.091,63.153,70.684,62.816,69.463z M63.639,68.913c1.955-2.35,11.073-1.5,4.399-0.23
		C66.248,67.337,64.877,69.478,63.639,68.913z M75.537,67.078C75.239,60.661,81.448,69.358,75.537,67.078z M78.913,67.059
		c1.235-3.233,4.789-1.296,0.571-0.649C79.576,66.755,79.36,68.08,78.913,67.059z M51.665,84.213
		C55.353,81.954,47.75,82.254,51.665,84.213L51.665,84.213z M54.391,84.969C55.686,83.595,51.582,84.414,54.391,84.969z
		 M46.356,79.267C48.465,77.649,43.863,78.652,46.356,79.267z M155.254,147.393C155.316,145.514,153.646,148.24,155.254,147.393z
		 M144.191,139.842C144.504,137.68,142.768,140.029,144.191,139.842z M158.298,148.12c2.946,0.011,8.927-0.913,2.517-0.91
		C159.808,147.366,154.954,147.332,158.298,148.12L158.298,148.12z M56.791,83.645c2.384-0.166,3.729-2.632-0.462-2.489
		c-6.496-0.673,5.732,2.225-0.833,1.396C54.614,83.135,56.74,83.807,56.791,83.645z M58.891,84.708
		C58.642,83.175,58.153,85.52,58.891,84.708z M61.382,78.065C62.416,76.781,59.949,77.722,61.382,78.065z M53.451,64.809
		c4.256-1.447,10.076-3.074,12.086,0.713c-2.045-2.461-0.826-4.884,1.105-1.285c2.731,3.64,4.099-1.656,2.322-2.877
		c2.023,2.516,4.326,3.704,1.355,0.16c3.229-3.885-6.465,0.507-8.668,0.464C60.591,62.458,50.705,64.504,53.451,64.809z
		 M55.945,60.033c2.428-1.832,8.394,1.088,4.565-1.821C60.136,57.881,52.125,60.419,55.945,60.033z M64.793,60.399
		c2.84,0.071-1.225-3.816,2.16-2.054c-0.555-1.816-3.94-2.157-5.596-2.882C60.421,57.123,63.263,60.421,64.793,60.399z
		 M57.497,52.366C58.48,51.034,55.775,53.041,57.497,52.366z M61.113,53.232c4.578-0.607-1.167-1.971-0.921-0.049L61.113,53.232
		L61.113,53.232z M54.361,47.948c-3.223-4.207,6.061,0.708,2.787-3.698C54.391,42.055,51.743,46.72,54.361,47.948z M95.723,70.227
		c1.479-2.622-6.103-3.533-0.996-0.928C95.197,69.455,95.091,70.408,95.723,70.227z"/>
</g>
</svg>
