<?xml version="1.0" encoding="utf-8"?>
<!-- Generator: Adobe Illustrator 16.0.0, SVG Export Plug-In . SVG Version: 6.00 Build 0)  -->
<!DOCTYPE svg PUBLIC "-//W3C//DTD SVG 1.1//EN" "http://www.w3.org/Graphics/SVG/1.1/DTD/svg11.dtd">
<svg version="1.1" id="GraphQL" xmlns="http://www.w3.org/2000/svg" xmlns:xlink="http://www.w3.org/1999/xlink" x="0px" y="0px"
	 width="150px" height="150px" viewBox="0 0 150 150" enable-background="new 0 0 150 150" xml:space="preserve">
<g>
	<g>
		<g>
			<rect x="50.173" y="11.192" transform="matrix(0.866 0.5 -0.5 0.866 38.1749 -18.0744)" width="5.287" height="102.021"/>
		</g>
	</g>
	<g>
		<g>
			<rect x="23.973" y="97.998" width="102.023" height="5.287"/>
		</g>
	</g>
	<g>
		<g>
			<rect x="23.366" y="110.767" transform="matrix(0.866 0.5 -0.5 0.866 63.7845 -11.22)" width="58.925" height="5.288"/>
		</g>
	</g>
	<g>
		<g>
			<rect x="67.696" y="33.978" transform="matrix(0.866 0.5 -0.5 0.866 31.3282 -43.6734)" width="58.925" height="5.288"/>
		</g>
	</g>
	<g>
		<g>
			<rect x="50.199" y="7.138" transform="matrix(0.5001 0.866 -0.866 0.5001 58.1149 -27.463)" width="5.287" height="58.925"/>
		</g>
	</g>
	<g>
		<g>
			<rect x="46.185" y="59.56" transform="matrix(0.5 0.866 -0.866 0.5 102.465 -53.0717)" width="102.019" height="5.287"/>
		</g>
	</g>
	<g>
		<g>
			<rect x="28.019" y="45.538" width="5.287" height="58.926"/>
		</g>
	</g>
	<g>
		<g>
			<rect x="116.695" y="45.538" width="5.287" height="58.926"/>
		</g>
	</g>
	<g>
		<g>
			<rect x="94.849" y="87.757" transform="matrix(0.4999 0.8661 -0.8661 0.4999 146.7938 -27.443)" width="4.619" height="51.249"/>
		</g>
	</g>
	<path d="M128.989,106.184c-3.058,5.32-9.875,7.135-15.193,4.078c-5.318-3.059-7.136-9.874-4.076-15.194
		c3.058-5.319,9.874-7.134,15.194-4.077C130.264,94.08,132.079,100.864,128.989,106.184"/>
	<path d="M40.249,54.934c-3.058,5.319-9.874,7.136-15.193,4.077c-5.319-3.058-7.134-9.874-4.077-15.193
		c3.058-5.319,9.875-7.135,15.194-4.077C41.491,42.83,43.307,49.614,40.249,54.934"/>
	<path d="M21.011,106.184c-3.058-5.319-1.242-12.104,4.077-15.193c5.319-3.057,12.104-1.242,15.193,4.077
		c3.059,5.32,1.242,12.104-4.076,15.194C30.853,113.318,24.068,111.504,21.011,106.184"/>
	<path d="M109.751,54.934c-3.058-5.319-1.243-12.104,4.076-15.193c5.32-3.058,12.104-1.242,15.194,4.077
		c3.058,5.319,1.242,12.104-4.078,15.193C119.625,62.069,112.81,60.253,109.751,54.934"/>
	<path d="M75,137.366c-6.147,0-11.116-4.968-11.116-11.115S68.853,115.134,75,115.134s11.117,4.97,11.117,11.117
		C86.117,132.367,81.147,137.366,75,137.366"/>
	<path d="M75,34.867c-6.147,0-11.116-4.969-11.116-11.116S68.853,12.634,75,12.634s11.117,4.97,11.117,11.117
		S81.147,34.867,75,34.867"/>
</g>
</svg>
