<?xml version="1.0" encoding="utf-8"?>
<!-- Generator: Adobe Illustrator 16.0.0, SVG Export Plug-In . SVG Version: 6.00 Build 0)  -->
<!DOCTYPE svg PUBLIC "-//W3C//DTD SVG 1.1//EN" "http://www.w3.org/Graphics/SVG/1.1/DTD/svg11.dtd">
<svg version="1.1" id="Layer_21" xmlns="http://www.w3.org/2000/svg" xmlns:xlink="http://www.w3.org/1999/xlink" x="0px" y="0px"
	 width="150px" height="150px" viewBox="0 0 150 150" enable-background="new 0 0 150 150" xml:space="preserve">
<g opacity="0.6">
	<polygon points="55.535,49 56.808,63 75,63 75,49 	"/>
	<path d="M20,13l10.005,112.092l44.904,12.328l45.085-12.336L130,13H20z M111.385,117.21L75,127.762v-14.219l-28.257-7.904
		L44.802,84h13.825l0.971,11.027L75,99.171V77H44.195l-3.759-41H75V21h44.964L111.385,117.21z"/>
</g>
<g opacity="0.5">
	<polygon points="91.92,77 75,77 75,99.155 90.311,94.969 	"/>
	<polygon points="75,21 75,36 109.443,36 108.171,49 75,49 75,63 106.926,63 103.138,105.463 75,113.463 75,127.762 111.385,117.39 
		119.964,21 	"/>
</g>
</svg>
