<?xml version="1.0" encoding="utf-8"?>
<!-- Generator: Adobe Illustrator 16.0.0, SVG Export Plug-In . SVG Version: 6.00 Build 0)  -->
<!DOCTYPE svg PUBLIC "-//W3C//DTD SVG 1.1//EN" "http://www.w3.org/Graphics/SVG/1.1/DTD/svg11.dtd">
<svg version="1.1" id="js" xmlns="http://www.w3.org/2000/svg" xmlns:xlink="http://www.w3.org/1999/xlink" x="0px" y="0px"
	 width="150px" height="150px" viewBox="0 0 150 150" enable-background="new 0 0 150 150" xml:space="preserve">
<path d="M12,12v126h126V12H12z M80.617,110.273c0,12.263-7.187,17.841-17.68,17.841c-9.48,0-14.97-4.905-17.762-10.813l9.639-5.838
	c1.858,3.301,3.552,6.092,7.62,6.092c3.889,0,6.345-1.522,6.345-7.439V69.854h11.838V110.273z M108.596,128.135
	c-10.996,0-18.103-5.238-21.578-12.107l9.623-5.59c2.537,4.145,5.84,7.19,11.68,7.19c4.906,0,8.039-2.452,8.039-5.84
	c0-4.062-3.221-5.498-8.617-7.86l-2.963-1.271c-8.543-3.64-14.219-8.199-14.219-17.841c0-8.879,6.768-15.639,17.34-15.639
	c7.527,0,12.938,2.619,16.84,9.481l-9.221,5.919c-2.027-3.641-4.22-5.074-7.619-5.074c-3.469,0-5.666,2.199-5.666,5.074
	c0,3.553,2.199,4.99,7.279,7.189l2.961,1.269c10.06,4.313,15.738,8.712,15.738,18.601
	C128.213,122.296,119.84,128.135,108.596,128.135z"/>
</svg>
