<?xml version="1.0" encoding="utf-8"?>
<!-- Generator: Adobe Illustrator 16.0.0, SVG Export Plug-In . SVG Version: 6.00 Build 0)  -->
<!DOCTYPE svg PUBLIC "-//W3C//DTD SVG 1.1//EN" "http://www.w3.org/Graphics/SVG/1.1/DTD/svg11.dtd">
<svg version="1.1" id="Layer_34" xmlns="http://www.w3.org/2000/svg" xmlns:xlink="http://www.w3.org/1999/xlink" x="0px" y="0px"
	 width="150px" height="150px" viewBox="0 0 150 150" enable-background="new 0 0 150 150" xml:space="preserve">
<path fill="none" d="M163.192,163.355l-2.509,5.066c0.824,0.764,1.406,1.77,1.637,2.908h1.891c0.218-1.078,0.751-2.048,1.515-2.8
	L163.192,163.355L163.192,163.355z"/>
<path fill="none" d="M158.575,167.197l4.617-9.331l4.605,9.392c0.182-0.061,0.363-0.108,0.546-0.157l4.375-12.907h-19.064
	l4.363,12.871C158.199,167.101,158.394,167.149,158.575,167.197z M156.987,175.451c1.685,0,3.055-1.37,3.055-3.055
	c0-0.618-0.183-1.188-0.497-1.672c-0.097-0.158-0.219-0.304-0.34-0.437l-0.012-0.012c-0.121-0.134-0.267-0.255-0.412-0.352
	l-0.012-0.013c-0.037-0.024-0.085-0.061-0.134-0.085c-0.012,0-0.012-0.012-0.024-0.012c-0.048-0.024-0.097-0.061-0.146-0.085h-0.012
	c-0.049-0.024-0.109-0.061-0.157-0.085h-0.013c-0.048-0.024-0.097-0.048-0.146-0.061c-0.012,0-0.024-0.012-0.036-0.012
	c-0.036-0.013-0.085-0.037-0.121-0.049c-0.012,0-0.024-0.012-0.049-0.012c-0.048-0.013-0.097-0.037-0.146-0.049h-0.012
	c-0.061-0.012-0.109-0.024-0.17-0.036c-0.012,0-0.024,0-0.048-0.013c-0.049-0.012-0.085-0.012-0.134-0.024
	c-0.024,0-0.036,0-0.061-0.012c-0.036,0-0.085-0.012-0.121-0.012h-0.473c-0.049,0-0.085,0.012-0.134,0.012h-0.048
	c-0.049,0.012-0.098,0.012-0.146,0.024h-0.036c-0.061,0.012-0.109,0.024-0.17,0.036c-1.333,0.327-2.327,1.539-2.327,2.97
	C153.934,174.069,155.303,175.451,156.987,175.451L156.987,175.451z M169.834,169.343h-0.024c-0.048,0-0.085-0.013-0.133-0.013
	h-0.158c-0.061,0-0.121,0-0.193,0.013h-0.061c-0.049,0-0.098,0.012-0.146,0.012c-0.013,0-0.036,0-0.049,0.013l-0.182,0.036h-0.012
	c-0.061,0.012-0.109,0.024-0.17,0.036c-0.012,0-0.036,0.013-0.049,0.013c-0.048,0.012-0.097,0.023-0.146,0.048
	c-0.012,0-0.024,0.013-0.036,0.013c-0.061,0.023-0.121,0.048-0.17,0.072c-0.061,0.024-0.108,0.049-0.169,0.073
	c-0.013,0-0.024,0.012-0.037,0.012c-0.048,0.024-0.097,0.049-0.146,0.085c0,0-0.012,0-0.012,0.012
	c-0.109,0.061-0.218,0.134-0.315,0.219l-0.012,0.012c-0.157,0.121-0.291,0.255-0.424,0.4c-0.134,0.145-0.243,0.314-0.34,0.484
	c-0.254,0.448-0.399,0.97-0.399,1.515c0,1.685,1.369,3.055,3.054,3.055s3.054-1.37,3.054-3.055c0-1.479-1.066-2.727-2.46-3.006
	C170.028,169.367,169.931,169.354,169.834,169.343L169.834,169.343z M144.323,175.451c1.685,0,3.054-1.37,3.054-3.055
	s-1.369-3.054-3.054-3.054s-3.055,1.369-3.055,3.054S142.639,175.451,144.323,175.451z"/>
<path fill="none" d="M169.531,177.814c-2.521,0-4.642-1.733-5.248-4.061h-2.036c-0.605,2.327-2.727,4.061-5.247,4.061
	c-0.291,0-0.57-0.024-0.837-0.062c-0.702,1.079-1.539,2.073-2.521,2.994c-1.733,1.636-3.696,2.848-5.817,3.611l-0.497,0.182
	l-0.46-0.242c-2.545-1.309-3.854-3.963-3.394-6.532c-0.291-0.049-0.569-0.121-0.836-0.218c-0.049,0.084-0.085,0.182-0.134,0.278
	c-0.775,1.6-1.587,3.248-1.878,5.018c-0.315,1.891-0.449,5.345,2.218,7.187c1.163,0.8,2.387,1.2,3.757,1.2
	c2.63,0,5.466-1.406,8.471-2.896c2.352-1.164,4.775-2.376,7.296-2.994c0.958-0.23,1.928-0.375,2.86-0.509
	c1.709-0.242,3.333-0.484,4.654-1.248c1.405-0.813,2.363-2.17,2.63-3.721c0.169-0.945,0.072-1.903-0.243-2.787
	C171.47,177.535,170.537,177.814,169.531,177.814L169.531,177.814z"/>
<path d="M128.581,74.056c0-7.553-5.194-13.91-12.166-15.727l15.616-46.052H54.636L70.29,58.476
	c-6.754,1.96-11.732,8.208-11.732,15.616c0,5.449,2.725,10.278,6.866,13.257c-1.633,2.323-3.523,4.466-5.666,6.499
	c-4.033,3.778-8.499,6.685-13.33,8.61c-4.357-2.944-6.245-8.136-4.539-12.786c6.646-2.034,11.478-8.244,11.478-15.542
	c0-8.973-7.301-16.236-16.236-16.236c-8.97,0-16.268,7.302-16.268,16.271c0,4.43,1.814,8.499,4.72,11.405
	c-0.254,0.509-0.509,1.016-0.764,1.56c-2.432,5.013-5.192,10.679-6.245,17.035c-2.107,12.71,1.343,22.918,9.66,28.691
	c4.686,3.231,9.842,4.867,15.399,4.867c9.552,0,19.248-4.794,28.618-9.444c6.682-3.304,13.583-6.754,20.375-8.425
	c2.505-0.618,5.121-0.98,7.881-1.382c5.593-0.799,11.366-1.633,16.562-4.647c6.066-3.523,10.204-9.405,11.404-16.163
	c0.907-5.191,0-10.421-2.323-14.998C127.709,80.158,128.581,77.217,128.581,74.056z M121.499,74.056
	c0,5.048-4.104,9.151-9.151,9.151c-5.049,0-9.154-4.103-9.154-9.151c0-1.636,0.436-3.196,1.2-4.539
	c0.289-0.509,0.652-1.019,1.016-1.455c0.365-0.436,0.799-0.834,1.272-1.197l0.035-0.038c0.293-0.216,0.617-0.436,0.945-0.653
	c0,0,0.035,0,0.035-0.038c0.146-0.07,0.29-0.181,0.436-0.251c0.039,0,0.073-0.038,0.108-0.038c0.146-0.073,0.328-0.143,0.51-0.216
	s0.362-0.146,0.509-0.22c0.035,0,0.073-0.035,0.108-0.035c0.146-0.038,0.29-0.108,0.437-0.146c0.038,0,0.108-0.035,0.146-0.035
	c0.181-0.038,0.324-0.073,0.506-0.111h0.038l0.544-0.108c0.035,0,0.108,0,0.146-0.035c0.144,0,0.29-0.038,0.437-0.038h0.181
	c0.182,0,0.363-0.035,0.58-0.035h0.474c0.144,0,0.252,0,0.398,0.035h0.073c0.289,0.038,0.579,0.073,0.872,0.146
	C118.338,65.92,121.499,69.625,121.499,74.056L121.499,74.056z M64.768,19.541h57.132l-13.11,38.68
	c-0.548,0.108-1.092,0.29-1.636,0.471L93.352,30.548L79.515,58.51c-0.544-0.181-1.126-0.29-1.706-0.398L64.768,19.541z
	 M90.738,70.896c-0.69-3.412-2.436-6.465-4.905-8.715l7.519-15.183l7.592,15.508c-2.251,2.253-3.887,5.121-4.539,8.39H90.738
	L90.738,70.896z M72.541,65.157c0.182-0.035,0.328-0.073,0.509-0.108h0.108c0.146-0.035,0.293-0.035,0.437-0.073h0.146
	c0.144,0,0.254-0.035,0.397-0.035h1.417c0.146,0,0.254,0.035,0.362,0.035c0.073,0,0.112,0,0.182,0.038
	c0.146,0.035,0.255,0.035,0.401,0.07c0.035,0,0.073,0,0.146,0.038c0.182,0.035,0.363,0.073,0.507,0.108h0.038
	c0.144,0.038,0.289,0.073,0.436,0.146c0.035,0,0.073,0.035,0.144,0.035c0.111,0.038,0.255,0.073,0.363,0.146
	c0.038,0,0.073,0.035,0.111,0.035c0.144,0.073,0.289,0.111,0.436,0.181h0.035c0.182,0.073,0.328,0.146,0.472,0.255h0.038
	c0.143,0.073,0.289,0.181,0.436,0.254c0.035,0,0.035,0.035,0.07,0.035c0.146,0.073,0.255,0.185,0.401,0.255l0.035,0.038
	c0.436,0.328,0.837,0.69,1.234,1.053L81.44,67.7c0.363,0.401,0.726,0.834,1.016,1.308c0.945,1.452,1.489,3.158,1.489,5.01
	c0,5.048-4.103,9.154-9.151,9.154c-5.049,0-9.155-4.105-9.155-9.154C65.604,69.769,68.546,66.175,72.541,65.157L72.541,65.157z
	 M36.805,64.902c5.048,0,9.151,4.106,9.151,9.154s-4.103,9.151-9.151,9.151s-9.154-4.103-9.154-9.151S31.756,64.902,36.805,64.902z
	 M121.282,96.392c-0.799,4.647-3.67,8.715-7.881,11.149c-3.96,2.289-8.827,3.015-13.948,3.74c-2.795,0.401-5.738,0.837-8.571,1.525
	c-7.554,1.852-14.817,5.483-21.865,8.973c-9.005,4.466-17.503,8.68-25.385,8.68c-4.106,0-7.773-1.162-11.258-3.597
	c-7.992-5.52-7.591-15.87-6.646-21.536c0.872-5.303,3.304-10.278,5.627-15.037c0.146-0.289,0.255-0.544,0.401-0.834
	c0.799,0.29,1.633,0.507,2.505,0.653c-1.381,7.699,2.543,15.653,10.169,19.575l1.378,0.726l1.49-0.544
	c6.356-2.251,12.239-5.921,17.433-10.822c2.941-2.76,5.449-5.739,7.553-8.97c0.837,0.144,1.671,0.181,2.509,0.181
	c7.553,0,13.91-5.194,15.724-12.168h6.102c1.817,7.012,8.171,12.168,15.728,12.168c3.014,0,5.809-0.837,8.206-2.253
	C121.499,90.726,121.788,93.559,121.282,96.392L121.282,96.392z"/>
</svg>
