<?xml version="1.0" encoding="utf-8"?>
<!-- Generator: Adobe Illustrator 16.0.0, SVG Export Plug-In . SVG Version: 6.00 Build 0)  -->
<!DOCTYPE svg PUBLIC "-//W3C//DTD SVG 1.1//EN" "http://www.w3.org/Graphics/SVG/1.1/DTD/svg11.dtd">
<svg version="1.1" id="jwt" xmlns="http://www.w3.org/2000/svg" xmlns:xlink="http://www.w3.org/1999/xlink" x="0px" y="0px"
	 width="150px" height="150px" viewBox="0 0 150 150" enable-background="new 0 0 150 150" xml:space="preserve">
<path opacity="0.8" d="M65.697,138.102c-0.002-0.27-0.006-0.537-0.006-0.807c0-10.763,0-21.525-0.001-32.289
	c0-0.193,0.025-0.395-0.036-0.604c-0.2,0.065-0.266,0.23-0.359,0.359c-2.89,3.959-5.777,7.922-8.666,11.883
	c-3.502,4.801-7.004,9.604-10.506,14.404c-0.04,0.055-0.077,0.11-0.118,0.163c-0.26,0.33-0.302,0.34-0.648,0.089
	c-2.703-1.965-5.403-3.932-8.105-5.896c-2.051-1.491-4.105-2.976-6.151-4.474c-0.592-0.434-0.672-0.334-0.169-1.026
	c3.735-5.15,7.465-10.306,11.199-15.458c2.542-3.508,5.086-7.012,7.629-10.52c0.128-0.177,0.251-0.355,0.374-0.537
	c0.066-0.098,0.074-0.188-0.057-0.24c0.003-0.28,0.19-0.352,0.421-0.373c0.571-0.137,1.102-0.393,1.66-0.571
	c3.751-1.206,7.514-2.378,11.259-3.603c0.59-0.193,1.186-0.367,1.779-0.549c0.642-0.195,0.813-0.062,0.845,0.622
	c0.008,0.169,0.007,0.337,0.007,0.503c0,4.479-0.002,8.956,0.005,13.436c0,0.472-0.154,0.951,0.045,1.419
	c-0.056,0.436-0.049,0.872-0.049,1.309c0,10.523,0.002,21.048-0.006,31.57c0,0.403,0.125,0.851-0.243,1.187
	C65.765,138.102,65.731,138.102,65.697,138.102z"/>
<path d="M65.798,138.102c-0.002-0.186-0.005-0.369-0.005-0.555c0-10.956,0-21.912,0.001-32.869c0-0.248-0.041-0.505,0.091-0.738
	c0.011-0.336,0.153-0.621,0.345-0.885c2.777-3.826,5.571-7.641,8.349-11.467c0.02-0.027,0.04-0.054,0.06-0.08
	c0.476-0.609,0.674-0.619,1.134,0.008c1.289,1.758,2.576,3.517,3.855,5.279c1.457,2.008,2.917,4.014,4.38,6.02
	c0.269,0.367,0.476,0.765,0.677,1.168c0.043,0.101,0.023,0.191-0.041,0.276c0.002,11.214,0.002,22.427,0.002,33.642
	c0,0.066-0.006,0.134-0.008,0.201C78.357,138.102,72.078,138.102,65.798,138.102z"/>
<path d="M84.537,12.169c0.007,3.812,0.008,7.623,0.021,11.434c0.022,6.766,0.053,13.532,0.082,20.298
	c0,0.134,0.006,0.268,0.008,0.402c0.115,0.611-0.058,1.242,0.121,1.848c-0.733,1.319-1.693,2.481-2.57,3.701
	c-2.065,2.873-4.17,5.718-6.243,8.584c-0.67,0.927-0.836,0.933-1.502,0.009c-2.697-3.741-5.434-7.452-8.139-11.186
	c-0.264-0.365-0.448-0.771-0.654-1.168c0.064-0.176,0.088-0.354,0.088-0.542c-0.003-5.303-0.002-10.606-0.003-15.91
	c0-0.116,0.018-0.236-0.039-0.346c-0.004-0.217-0.011-0.435-0.012-0.652c-0.022-5.291-0.044-10.582-0.068-15.873
	c-0.001-0.2-0.021-0.399-0.032-0.6C71.91,12.169,78.225,12.169,84.537,12.169z"/>
<path opacity="0.2" d="M65.708,29.293c0.109,0.239,0.075,0.495,0.076,0.744c0.014,5.148,0.025,10.297,0.037,15.445
	c0,0.251-0.021,0.504,0.074,0.746c0.185,0.723,0.152,1.461,0.152,2.196c0,4.146,0,8.292,0,12.437c0,0.285,0.012,0.571-0.023,0.855
	c-0.054,0.441-0.254,0.586-0.688,0.468c-0.761-0.208-1.506-0.467-2.257-0.708c-3.866-1.245-7.741-2.458-11.602-3.719
	c-0.304-0.099-0.586-0.24-0.876-0.366c-0.175-0.071-0.28-0.196-0.296-0.39c-1.382-1.899-2.768-3.797-4.146-5.699
	c-5.103-7.039-10.205-14.078-15.305-21.119c-0.387-0.534-0.417-0.438,0.121-0.829c4.763-3.466,9.528-6.931,14.292-10.396
	c0.041-0.029,0.081-0.06,0.122-0.088c0.349-0.246,0.353-0.248,0.615,0.111c1.603,2.196,3.205,4.393,4.807,6.589
	c4.826,6.617,9.652,13.234,14.48,19.851c0.105,0.143,0.187,0.312,0.377,0.432c0.116-0.209,0.07-0.411,0.069-0.601
	c-0.016-5.12-0.035-10.239-0.052-15.358C65.683,29.695,65.7,29.494,65.708,29.293z"/>
<path opacity="0.4" d="M50.304,57.002c0.094,0.064,0.188,0.129,0.282,0.193c3.153,3.829,5.862,7.987,8.85,11.938
	c0.785,1.038,0.73,1.137-0.502,1.555c-4.34,1.469-8.709,2.849-13.05,4.317c-0.359,0.121-0.725,0.188-1.104,0.174
	c-0.157-0.029-0.305-0.088-0.456-0.139c-0.879-0.279-1.761-0.55-2.637-0.837c-9.552-3.133-19.104-6.269-28.655-9.404
	c-0.769-0.252-0.681-0.164-0.448-0.883c1.792-5.542,3.585-11.082,5.382-16.621c0.219-0.676,0.157-0.605,0.787-0.401
	c10.33,3.347,20.659,6.696,30.99,10.039C49.919,56.991,50.097,57.15,50.304,57.002z"/>
<path opacity="0.4" d="M44.324,75.041c0.18,0.001,0.36,0.003,0.54,0.004c0.255,0.234,0.591,0.1,0.887,0.197
	c4.399,1.453,8.815,2.854,13.221,4.285c1.167,0.379,1.199,0.519,0.479,1.507c-2.691,3.688-5.374,7.381-8.054,11.075
	c-0.255,0.353-0.571,0.615-0.918,0.856c-0.134,0.062-0.268,0.123-0.402,0.185c-6.385,2.068-12.77,4.137-19.154,6.205
	c-4.054,1.313-8.108,2.629-12.163,3.942c-0.618,0.199-0.582,0.252-0.794-0.403c-1.794-5.539-3.588-11.076-5.382-16.615
	c-0.01-0.032-0.022-0.063-0.033-0.096c-0.185-0.57-0.185-0.572,0.391-0.761c5.395-1.748,10.79-3.496,16.185-5.243
	c4.948-1.604,9.896-3.21,14.843-4.814c0.127-0.042,0.26-0.073,0.379-0.132C44.488,75.164,44.355,75.103,44.324,75.041z"/>
<path opacity="0.4" d="M99.95,57.102c0.274-0.078,0.551-0.146,0.821-0.234c10.23-3.316,20.461-6.634,30.692-9.952
	c0.063-0.021,0.126-0.045,0.19-0.065c0.468-0.146,0.473-0.148,0.627,0.329c1.313,4.054,2.625,8.109,3.938,12.164
	c0.502,1.548,1.006,3.096,1.508,4.646c0.041,0.127,0.078,0.256,0.115,0.385c0.039,0.135-0.006,0.229-0.142,0.275
	c-0.128,0.043-0.255,0.086-0.382,0.128c-10.314,3.385-20.631,6.77-30.943,10.158c-0.199,0.065-0.441,0.067-0.563,0.292
	c-0.041,0.076-0.109,0.112-0.192,0.126c-4.466-1.333-8.853-2.908-13.281-4.35c-0.495-0.161-1.002-0.281-1.487-0.468
	c-0.611-0.234-0.675-0.45-0.271-1.017c1.021-1.435,2.064-2.855,3.104-4.277c1.724-2.356,3.438-4.717,5.155-7.078
	c0.237-0.326,0.503-0.625,0.776-0.919C99.708,57.148,99.809,57.077,99.95,57.102z"/>
<path opacity="0.8" d="M99.95,57.102c-0.062,0.07-0.123,0.14-0.185,0.209c-1.67,0.864-3.508,1.253-5.271,1.844
	c-2.833,0.948-5.688,1.832-8.527,2.759c-0.318,0.104-0.634,0.218-0.968,0.275c-0.358,0.061-0.542-0.092-0.584-0.442
	c-0.024-0.2-0.026-0.402-0.026-0.603c-0.002-4.583,0.002-9.166-0.006-13.749c-0.001-0.402,0.098-0.78,0.164-1.167
	c0.123-0.251,0.064-0.521,0.075-0.783c0.017-0.38-0.033-0.763,0.026-1.142c0.158,0.47,0.002,0.967,0.107,1.442
	c0.172,0.024,0.204-0.115,0.268-0.201c2.642-3.64,5.281-7.281,7.92-10.922c2.109-2.907,4.218-5.814,6.326-8.721
	c1.625-2.242,3.248-4.484,4.873-6.726c0.039-0.055,0.078-0.11,0.117-0.164c0.29-0.38,0.293-0.382,0.672-0.108
	c1.399,1.014,2.799,2.03,4.195,3.046c3.325,2.418,6.652,4.833,9.975,7.257c0.676,0.494,0.752,0.394,0.181,1.183
	c-4.435,6.113-8.86,12.231-13.291,18.346c-1.843,2.542-3.688,5.079-5.529,7.62C100.285,56.599,100.121,56.852,99.95,57.102z"/>
<path opacity="0.2" d="M84.645,104.259c-0.029-0.081-0.06-0.161-0.088-0.243c-0.199-0.725-0.168-1.466-0.168-2.205
	c0.002-4.246-0.002-8.49,0.002-12.735c0.002-1.206,0.096-1.269,1.243-0.897c4.199,1.354,8.398,2.708,12.599,4.064
	c0.479,0.154,0.959,0.308,1.402,0.55c0.163,0.077,0.282,0.192,0.325,0.374c1.579,2.172,3.161,4.342,4.737,6.516
	c4.888,6.74,9.773,13.48,14.656,20.225c0.479,0.66,0.518,0.525-0.151,1.013c-4.709,3.429-9.419,6.854-14.132,10.277
	c-0.596,0.433-0.465,0.461-0.896-0.134c-6.364-8.777-12.728-17.559-19.093-26.336C84.957,104.553,84.875,104.334,84.645,104.259z"/>
<path opacity="0.4" d="M99.96,93.165c-0.104-0.062-0.209-0.122-0.313-0.183c-1.178-1.307-2.123-2.787-3.162-4.197
	c-1.977-2.686-3.94-5.381-5.889-8.088c-0.42-0.581-0.347-0.833,0.35-1.057c3.271-1.047,6.537-2.117,9.813-3.156
	c1.264-0.4,2.512-0.844,3.782-1.217c0.34-0.1,0.674-0.192,1.021-0.046c0.084,0.001,0.17,0.003,0.254,0.004
	c1.485,0.475,2.974,0.942,4.457,1.423c9.002,2.918,18.002,5.838,27.002,8.757c0.717,0.231,0.664,0.144,0.437,0.851
	c-1.798,5.555-3.601,11.107-5.397,16.663c-0.219,0.679-0.223,0.563-0.756,0.392c-10.279-3.33-20.556-6.666-30.834-9.994
	C100.479,93.236,100.242,93.07,99.96,93.165z"/>
</svg>
