<?xml version="1.0" encoding="utf-8"?>
<!-- Generator: Adobe Illustrator 16.0.0, SVG Export Plug-In . SVG Version: 6.00 Build 0)  -->
<!DOCTYPE svg PUBLIC "-//W3C//DTD SVG 1.1//EN" "http://www.w3.org/Graphics/SVG/1.1/DTD/svg11.dtd">
<svg version="1.1" id="Layer_33" xmlns="http://www.w3.org/2000/svg" xmlns:xlink="http://www.w3.org/1999/xlink" x="0px" y="0px"
	 width="150px" height="150px" viewBox="0 0 150 150" enable-background="new 0 0 150 150" xml:space="preserve">
<g opacity="0.5">
	<path fill-rule="evenodd" clip-rule="evenodd" d="M12.657,53.329c0-8.956-0.073-17.911,0.028-26.865
		c0.057-5.078,2.153-6.322,6.59-3.827c11.507,6.469,22.981,13,34.352,19.703c2.479,1.462,4.378,1.412,6.765,0.033
		c11.616-6.711,23.294-13.313,34.959-19.938c3.735-2.121,6.136-0.936,6.153,3.284c0.078,18.3-0.001,36.601,0.071,54.9
		c0.011,2.848-1.728,4.125-3.785,5.317c-5.24,3.039-10.478,6.08-15.74,9.078c-1.619,0.922-3.188,1.853-3.289,3.956
		c-0.119,2.423,1.749,3.257,3.501,4.147c0.577,0.293,1.262,0.472,1.719,0.896c6.367,5.897,12.306,4.241,18.577-0.473
		c3.783-2.842,8.176-4.91,12.407-7.108c3.053-1.586,4.666-3.57,4.442-7.283c-0.305-5.041,0.006-10.117-0.01-15.177
		c-0.006-1.59-0.094-3.335,1.193-4.343c3.758-2.942,7.844-5.48,12.288-7.174c2.614-0.998,4.289,0.88,4.31,3.478
		c0.097,11.94,0.021,23.881,0.045,35.822c0.005,2.391-1.753,3.362-3.389,4.308c-12.275,7.103-24.633,14.072-36.87,21.244
		c-3.049,1.785-5.517,1.719-8.559-0.109c-9.317-5.6-18.767-10.985-28.259-16.289c-2.249-1.258-3.125-2.831-3.086-5.287
		c0.078-4.801,0.086-9.605-0.011-14.406c-0.035-1.751,0.493-2.778,2.094-3.665c6.879-3.812,13.618-7.878,20.517-11.65
		c2.752-1.505,4.268-3.186,3.991-6.602c-0.344-4.255-0.021-8.56-0.101-12.842c-0.075-4.077-2.637-5.394-6.212-3.313
		c-5.346,3.114-10.782,6.083-16.026,9.357c-2.904,1.814-5.409,1.769-8.279,0.025c-5.198-3.157-10.497-6.151-15.804-9.122
		c-4.563-2.553-6.705-1.232-6.717,4.071c-0.021,9.475,0.015,18.95-0.014,28.424c-0.019,5.441-2.368,6.777-7.027,3.994
		c-13.47-8.049-10.543-3.323-10.862-19.043c-0.12-5.839-0.021-11.68-0.021-17.521C12.621,53.329,12.638,53.329,12.657,53.329z"/>
	<path fill-rule="evenodd" clip-rule="evenodd" d="M137.228,31.841c-0.401,2.261,1.216,5.582-0.896,7.752
		c-3.226,3.313-7.47,5.443-11.705,7.256c-2.381,1.021-4.432-0.056-4.536-2.988c-0.148-4.142-0.096-8.291-0.098-12.437
		c-0.001-1.223,0.429-2.333,1.451-3.045c3.491-2.427,7.044-4.8,10.966-6.455c2.612-1.102,4.57,0.288,4.79,3.187
		C137.355,27.174,137.228,29.257,137.228,31.841z"/>
</g>
</svg>
