<?xml version="1.0" encoding="utf-8"?>
<!-- Generator: Adobe Illustrator 16.0.0, SVG Export Plug-In . SVG Version: 6.00 Build 0)  -->
<!DOCTYPE svg PUBLIC "-//W3C//DTD SVG 1.1//EN" "http://www.w3.org/Graphics/SVG/1.1/DTD/svg11.dtd">
<svg version="1.1" id="mongo" xmlns="http://www.w3.org/2000/svg" xmlns:xlink="http://www.w3.org/1999/xlink" x="0px" y="0px"
	 width="150px" height="150px" viewBox="0 0 150 150" enable-background="new 0 0 150 150" xml:space="preserve">
<g>
	<path opacity="0.5" enable-background="new    " d="M74.609,12.764l3.338,6.273c0.752,1.157,1.566,2.183,2.523,3.137
		c2.797,2.796,5.451,5.725,7.838,8.862c5.658,7.431,9.477,15.683,12.2,24.607c1.636,5.452,2.523,11.044,2.591,16.699
		c0.271,16.907-5.523,31.424-17.207,43.488c-1.91,1.908-3.951,3.676-6.142,5.248c-1.155,0-1.705-0.889-2.183-1.705
		c-0.887-1.498-1.432-3.207-1.705-4.907c-0.411-2.048-0.681-4.092-0.548-6.204v-0.953c-0.093-0.203-1.114-94.063-0.707-94.542l0,0
		L74.609,12.764z"/>
	<path opacity="0.4" enable-background="new    " d="M74.609,12.556c-0.137-0.273-0.274-0.066-0.412,0.067
		c0.068,1.369-0.411,2.588-1.156,3.754c-0.821,1.157-1.909,2.046-3,3c-6.062,5.248-10.833,11.588-14.654,18.678
		c-5.083,9.543-7.704,19.769-8.448,30.536c-0.339,3.883,1.229,17.586,2.454,21.541c3.339,10.496,9.338,19.291,17.109,26.927
		c1.909,1.836,3.949,3.541,6.062,5.181c0.614,0,0.681-0.548,0.82-0.954c0.269-0.871,0.476-1.762,0.614-2.661l1.369-10.222
		L74.609,12.556L74.609,12.556z"/>
	<path opacity="0.2" d="M77.947,125.23c0.14-1.565,0.891-2.863,1.707-4.158c-0.82-0.34-1.432-1.018-1.908-1.771
		c-0.411-0.681-0.751-1.498-1.016-2.249c-0.957-2.862-1.158-5.866-1.433-8.792v-1.771c-0.34,0.273-0.412,2.59-0.412,2.934
		c-0.191,3.084-0.614,6.178-1.228,9.204c-0.204,1.228-0.339,2.452-1.095,3.542c0,0.139,0,0.273,0.067,0.479
		c1.228,3.614,1.564,7.295,1.772,11.045v1.369c0,1.635-0.067,1.291,1.29,1.838c0.549,0.203,1.158,0.272,1.707,0.681
		c0.41,0,0.477-0.34,0.477-0.614l-0.203-2.249v-6.272c-0.066-1.096,0.137-2.183,0.273-3.207L77.947,125.23L77.947,125.23z"/>
</g>
</svg>
