<?xml version="1.0" encoding="utf-8"?>
<!-- Generator: Adobe Illustrator 16.0.0, SVG Export Plug-In . SVG Version: 6.00 Build 0)  -->
<!DOCTYPE svg PUBLIC "-//W3C//DTD SVG 1.1//EN" "http://www.w3.org/Graphics/SVG/1.1/DTD/svg11.dtd">
<svg version="1.1" id="node" xmlns="http://www.w3.org/2000/svg" xmlns:xlink="http://www.w3.org/1999/xlink" x="0px" y="0px"
	 width="150px" height="150px" viewBox="0 0 150 150" enable-background="new 0 0 150 150" xml:space="preserve">
<g>
	<path opacity="0.5" d="M75.022,137.771c-1.681,0-3.352-0.445-4.825-1.294l-15.355-9.094c-2.299-1.278-1.179-1.735-0.42-1.997
		c3.057-1.068,3.677-1.311,6.944-3.165c0.342-0.198,0.791-0.127,1.14,0.079l11.802,7.001c0.425,0.23,1.032,0.23,1.421,0
		l46.011-26.553c0.421-0.238,0.694-0.734,0.694-1.243V48.42c0-0.528-0.273-1.001-0.707-1.267L75.741,20.625
		c-0.426-0.254-0.993-0.254-1.418,0L28.35,47.154c-0.445,0.254-0.73,0.75-0.73,1.258v53.086c0,0.5,0.277,0.988,0.714,1.227
		l12.6,7.283c6.842,3.415,11.019-0.612,11.019-4.67V52.947c0-0.75,0.584-1.323,1.339-1.323h5.825c0.723,0,1.322,0.572,1.322,1.323
		v52.415c0,9.124-4.972,14.361-13.62,14.361c-2.665,0-4.757,0-10.606-2.878l-12.067-6.958c-2.981-1.727-4.824-4.946-4.824-8.39
		V48.412c0-3.454,1.843-6.683,4.824-8.386l46.05-26.565c2.915-1.644,6.782-1.644,9.674,0l45.989,26.573
		c2.97,1.719,4.824,4.936,4.824,8.386v53.085c0,3.446-1.854,6.655-4.824,8.382l-45.989,26.565c-1.474,0.854-3.146,1.294-4.854,1.294
		"/>
	<path opacity="0.5" d="M89.233,101.188c-20.132,0-24.349-9.24-24.349-16.987c0-0.734,0.596-1.33,1.33-1.33h5.94
		c0.659,0,1.215,0.48,1.314,1.132c0.897,6.052,3.569,9.104,15.74,9.104c9.697,0,13.818-2.184,13.818-7.329
		c0-2.959-1.176-5.159-16.236-6.636c-12.6-1.243-20.383-4.015-20.383-14.092c0-9.28,7.83-14.803,20.95-14.803
		c14.728,0,22.026,5.11,22.947,16.097c0.036,0.378-0.107,0.743-0.357,1.017c-0.254,0.271-0.607,0.434-0.977,0.434H103
		c-0.627,0-1.171-0.441-1.294-1.037c-1.438-6.369-4.92-8.406-14.374-8.406c-10.578,0-11.81,3.681-11.81,6.449
		c0,3.347,1.449,4.328,15.725,6.214c14.144,1.877,20.854,4.53,20.854,14.465c0,10.015-8.358,15.765-22.935,15.765"/>
</g>
</svg>
