<?xml version="1.0" encoding="utf-8"?>
<!-- Generator: Adobe Illustrator 16.0.0, SVG Export Plug-In . SVG Version: 6.00 Build 0)  -->
<!DOCTYPE svg PUBLIC "-//W3C//DTD SVG 1.1//EN" "http://www.w3.org/Graphics/SVG/1.1/DTD/svg11.dtd">
<svg version="1.1" id="pug" xmlns="http://www.w3.org/2000/svg" xmlns:xlink="http://www.w3.org/1999/xlink" x="0px" y="0px"
	 width="150px" height="150px" viewBox="0 0 150 150" enable-background="new 0 0 150 150" xml:space="preserve">
<path opacity="0.31" d="M107.543,95.555c-1.996,0.998-2.693,1.299-2.693,0c0-1.298-0.301-6.289-1.398-10.183
	s-4.092-6.39-6.389-8.886c-2.297-2.494-7.887-4.491-11.182-7.386c-2.795-2.497-5.791-5.191-10.082-5.291l0.03,3.693
	c1.026,0,2.415,0,2.415,0c0-0.082-1.52,0.629-2.408,0.949l0.362,44.771c24.088-0.067,33.851-4.958,35.04-15.071
	c0.499-3.692,5.589-7.187,6.188-11.08C117.426,87.07,112.235,93.259,107.543,95.555z"/>
<path opacity="0.31" d="M43.805,95.555c2.012,0.998,2.715,1.299,2.715,0c0-1.298,0.303-6.289,1.409-10.183
	c1.106-3.894,4.124-6.39,6.439-8.886c2.315-2.494,7.949-4.491,11.27-7.386c2.817-2.497,5.836-5.191,10.161-5.291l-0.03,3.693
	c-1.035,0-2.434,0-2.434,0c0-0.082,1.531,0.629,2.427,0.949l-0.365,44.771c-24.278-0.067-34.117-4.958-35.316-15.071
	c-0.503-3.692-5.633-7.187-6.236-11.08C33.844,87.07,39.076,93.259,43.805,95.555z"/>
<path opacity="0.18" d="M118.075,60.214c-0.199-4.393,0.399-8.286-1.597-11.58c-4.793-8.186-16.771-12.978-40.729-12.978
	c0,0,0,0-0.001,0c-23.958,0-36.536,4.792-41.328,13.078c-1.897,3.394-1.697,7.188-1.997,11.58c-0.2,3.494-1.797,7.188-1.098,11.181
	c0.799,5.19,1.098,10.382,1.896,15.174c0.599,3.894,5.99,7.188,6.489,10.881c1.397,10.185,11.979,14.875,35.938,14.875v0.8h0.101
	v-0.8c23.958,0,34.142-4.69,35.438-14.875c0.5-3.793,5.49-6.987,6.09-10.881c0.799-4.792,1.099-9.981,1.896-15.174
	C119.872,67.502,118.275,63.708,118.075,60.214z M50.292,65.805c-1.268,0-2.296-1.028-2.296-2.296c0-1.268,1.028-2.296,2.296-2.296
	s2.296,1.028,2.296,2.296C52.588,64.777,51.56,65.805,50.292,65.805z M100.705,65.805c-1.268,0-2.296-1.028-2.296-2.296
	c0-1.268,1.028-2.296,2.296-2.296s2.296,1.028,2.296,2.296C103.001,64.777,101.973,65.805,100.705,65.805z"/>
<path d="M103.001,58.617c-4.852,0-8.785,3.933-8.785,8.785c0,4.852,3.934,8.786,8.785,8.786c4.853,0,8.785-3.934,8.785-8.786
	C111.786,62.55,107.854,58.617,103.001,58.617z M100.705,65.805c-1.268,0-2.296-1.028-2.296-2.296c0-1.268,1.028-2.296,2.296-2.296
	s2.296,1.028,2.296,2.296C103.001,64.777,101.973,65.805,100.705,65.805z"/>
<path opacity="0.18" d="M89.625,67.003c0,0,7.887,5.391,12.18,10.683c4.291,5.291,4.191,6.289,4.191,6.289l-3.094,1.396
	c0,0-4.394-8.285-9.784-11.38c-5.49-3.095-6.089-5.69-6.089-5.69L89.625,67.003z"/>
<path opacity="0.82" d="M75.149,74.49c0,0-0.699,9.683-2.096,11.58l2.595-0.598L75.149,74.49z"/>
<path opacity="0.82" d="M75.85,74.49c0,0,0.697,9.683,2.096,11.58l-2.595-0.598L75.85,74.49z"/>
<path d="M75.749,74.49c0-0.399,3.394-0.499,5.19-1.697c0,0-3.692,1.198-4.491,0.699c-0.8-0.399-0.999-1.597-0.999-1.597
	s-0.299,1.198-0.898,1.597c-0.699,0.399-4.892-0.699-4.892-0.699s5.59,1.398,5.59,1.697c0,0.299-0.1,1.298-0.1,1.996
	c0,2.496,0,8.687,0.399,9.186c0.599,0.898,0.399-6.688,0.399-9.186C75.85,75.688,75.85,74.889,75.749,74.49z"/>
<path opacity="0.82" d="M75.25,105.536c-3.794,0-7.487-1.197-10.881-2.097c-0.699-0.198-1.398,0.301-2.097,0.101
	c-6.289-1.997-11.38-5.392-14.475-9.683c0,0.299,0,0.697,0,0.998c0,20.963,7.387,15.072,12.279,17.568
	c4.991,2.495,10.182,1.697,15.473,1.697l0,0h0.1c5.392,0,10.482,0.697,15.475-1.797c4.893-2.496,12.279,3.594,12.279-17.37
	c0-0.799,0-1.599,0.1-2.297c-2.896,4.692-8.188,8.386-14.775,10.583c-0.598,0.199-1.996-0.301-2.595-0.2
	C82.537,104.239,79.343,105.536,75.25,105.536z"/>
<path opacity="0.82" d="M65.766,94.256c0,0-2.496,7.487-0.798,10.781l-2.296-0.998C62.671,104.039,64.368,96.453,65.766,94.256z"/>
<path opacity="0.82" d="M85.531,94.256c0,0,2.496,7.487,0.799,10.781l2.297-0.998C88.627,104.039,86.829,96.453,85.531,94.256z"/>
<path d="M75.648,86.07c2.694,0,11.08,5.789,11.181,12.878c0-0.101,0-0.2,0-0.399c0-7.388-6.788-13.277-11.181-13.277
	s-11.181,5.989-11.181,13.277c0,0.1,0,0.199,0,0.399C64.568,91.859,72.954,86.07,75.648,86.07z"/>
<ellipse transform="matrix(-0.9683 0.2497 -0.2497 -0.9683 170.1304 120.0085)" fill="#1F1F1F" cx="77.452" cy="70.797" rx="0.798" ry="1.497"/>
<ellipse transform="matrix(-0.9551 -0.2964 0.2964 -0.9551 122.0093 160.1149)" fill="#1F1F1F" cx="73.143" cy="70.808" rx="0.798" ry="1.497"/>
<path d="M47.996,58.617c-4.852,0-8.785,3.933-8.785,8.785c0,4.852,3.933,8.786,8.785,8.786c4.852,0,8.785-3.934,8.785-8.786
	C56.781,62.55,52.848,58.617,47.996,58.617z M50.292,65.805c-1.268,0-2.296-1.028-2.296-2.296c0-1.268,1.028-2.296,2.296-2.296
	s2.296,1.028,2.296,2.296C52.588,64.777,51.56,65.805,50.292,65.805z"/>
<path opacity="0.77" d="M75.748,66.104c-5.69,0.1-9.284,3.794-8.286,6.09c0.999,2.396,4.692,3.095,8.286,3.195
	c3.693-0.1,7.288-0.799,8.286-3.195S81.438,66.104,75.748,66.104z M75.349,68.6c-0.599-0.1-2.895-1.198-2.895-1.098
	c0,0,1.896,0,2.895,0c0.999,0,2.895,0,2.895,0C78.244,67.402,75.948,68.501,75.349,68.6z"/>
<path opacity="0.18" d="M60.774,67.003c0,0-7.887,5.391-12.179,10.683c-4.293,5.291-4.193,6.289-4.193,6.289l3.094,1.396
	c0,0,4.393-8.285,9.783-11.38c5.391-3.095,6.09-5.69,6.09-5.69L60.774,67.003z"/>
<path opacity="0.31" d="M43.504,51.031c0,0-2.695,7.387-8.685,10.481C34.819,61.512,44.203,60.414,43.504,51.031z"/>
<path opacity="0.31" d="M106.495,51.031c0,0,2.694,7.387,8.687,10.481C115.182,61.512,105.797,60.414,106.495,51.031z"/>
<path opacity="0.31" d="M89.425,64.807c0,0-5.89-6.189-13.776-6.389l0,0c-0.1,0,0.201,0,0.101,0s0.101,0,0.101,0l0,0
	c-7.987,0.2-13.777,6.389-13.777,6.389c6.888-4.792,12.778-4.692,13.777-4.692l0,0l0,0l0,0l0,0
	C75.749,60.115,82.537,60.015,89.425,64.807z"/>
<path opacity="0.31" d="M82.537,51.829c0,0-2.995-4.192-6.988-4.292l0,0h0.1h0.101l0,0c-2.995,0.1-6.888,4.292-6.888,4.292
	c3.395-3.294,6.888-3.194,6.888-3.194l0,0l0,0l0,0l0,0C75.749,48.634,79.043,48.535,82.537,51.829z"/>
<path opacity="0.31" d="M47.996,82.477c0,0-4.692,2.297-8.086,0.898l0,0h-0.1l0,0l0,0c-2.995-1.697-4.492-6.788-4.492-6.788
	S38.313,85.57,47.996,82.477z"/>
<path opacity="0.31" d="M102.702,82.477c0,0,4.692,2.297,8.086,0.898l0,0l0,0l0,0l0,0c3.993-1.697,4.592-6.788,4.592-6.788
	S112.387,85.57,102.702,82.477z"/>
<path opacity="0.31" d="M53.387,50.531c2.596-0.499,6.888-0.599,10.283,0.5c4.292,1.497,0.799,6.987,1.697,7.287
	c0.898,0.299,2.096-3.794,10.083-3.394c8.086,0.399,8.985,3.993,10.083,3.394c1.099-0.599-1.098-9.983,10.98-7.787
	c0,0-12.679-3.396-12.078,5.79c0,0-7.287-5.59-17.471-0.599C67.064,55.722,69.659,47.137,53.387,50.531z"/>
<path opacity="0.31" d="M97.609,50.531c0.201,0,0.301,0.1,0.4,0.1S97.91,50.531,97.609,50.531z"/>
<path opacity="0.31" d="M97.609,50.531L97.609,50.531L97.609,50.531z"/>
<path opacity="0.31" d="M49.893,38.252c0,0-10.781,13.576-12.378,18.768c-1.598,5.291-2.795,26.955-4.193,30.048l-4.991-21.363
	l9.184-22.262L49.893,38.252z"/>
<path opacity="0.31" d="M100.605,38.252c0,0,10.781,13.576,12.379,18.768c1.597,5.291,2.795,26.955,4.193,30.048l4.99-21.363
	l-9.186-22.262L100.605,38.252z"/>
<path opacity="0.77" d="M100.105,38.252c0,0,11.58,9.683,14.976,20.864c3.394,11.18,1.996,24.757,4.592,26.454
	c3.693,2.396,7.888-11.879,9.284-13.376c2.195-2.396,9.482-8.485,9.982-9.583c0.5-1.098-14.774-17.769-21.463-21.063
	C109.391,37.753,99.408,37.454,100.105,38.252z"/>
<path opacity="0.82" d="M109.988,44.242c0,0,13.678,17.47,13.478,39.232l5.491-11.182C128.855,72.293,124.064,58.018,109.988,44.242
	z"/>
<path opacity="0.77" d="M49.893,38.252c0,0-11.58,9.683-14.974,20.864c-3.394,11.18-1.997,24.757-4.592,26.454
	c-3.694,2.396-7.887-11.879-9.284-13.376c-2.196-2.396-9.484-8.485-9.983-9.583c-0.499-1.098,14.774-17.769,21.463-21.063
	C40.609,37.753,50.592,37.454,49.893,38.252z"/>
<path opacity="0.82" d="M40.01,44.242c0,0-13.676,17.47-13.477,39.232l-5.391-11.182C21.143,72.293,25.935,58.018,40.01,44.242z"/>
<path opacity="0.31" d="M32.623,83.874c0,0,0.998,5.392,2.595,7.088c1.597,1.696,0.5-1.298,0.5-1.298s-1.697-0.898-1.397-7.787
	C34.619,74.989,32.623,83.874,32.623,83.874z"/>
<path opacity="0.31" d="M117.775,83.874c0,0-0.998,5.392-2.596,7.088s-0.498-1.298-0.498-1.298s1.695-0.898,1.396-7.787
	C115.779,74.989,117.775,83.874,117.775,83.874z"/>
<circle opacity="0.82" cx="65.267" cy="79.781" r="0.799"/>
<circle opacity="0.82" cx="60.675" cy="84.573" r="0.798"/>
<circle opacity="0.82" cx="59.177" cy="79.781" r="0.799"/>
<circle opacity="0.82" cx="84.732" cy="79.781" r="0.799"/>
<circle opacity="0.82" cx="89.325" cy="84.573" r="0.798"/>
<circle opacity="0.82" cx="90.822" cy="79.781" r="0.799"/>
<path opacity="0.77" d="M98.809,80.68c-4.791-5.891-12.479-11.381-23.16-11.381h-0.1c-10.682,0-18.368,5.49-23.16,11.381
	c-4.991,6.09-4.592,8.485-4.592,14.275c0,20.964,7.387,14.975,12.279,17.568c4.991,2.496,10.182,1.697,15.473,1.697h0.1
	c5.392,0,10.482,0.698,15.475-1.797c4.893-2.496,12.279,3.694,12.279-17.271C103.501,89.364,103.8,86.77,98.809,80.68z
	 M75.947,87.867c-1.896,0-5.489,1.398-8.285,3.594c2.696-3.195,6.489-5.391,8.285-5.391c1.699,0,4.793,1.996,7.388,4.892
	C80.641,89.064,77.645,87.867,75.947,87.867z"/>
<path opacity="0.31" d="M59.377,56.021c0.998-3.493-8.286-2.595-12.978-1.497c-4.692,0.998-7.887,2.396-9.684,7.288
	c-1.797,4.892-1.098,11.281,3.095,14.875c4.992,4.291,11.68,2.994,11.68,2.994s4.193-0.699,5.79-6.39
	c1.597-5.69,4.193-7.188,4.193-7.188C55.284,69.598,58.479,59.116,59.377,56.021z M50.292,65.805c-1.268,0-2.296-1.028-2.296-2.296
	c0-1.268,1.028-2.296,2.296-2.296s2.296,1.028,2.296,2.296C52.588,64.777,51.56,65.805,50.292,65.805z"/>
<path opacity="0.31" d="M113.783,61.812c-1.799-4.792-4.991-6.29-9.684-7.288c-4.691-1.098-14.076-1.996-12.978,1.497
	c0.897,3.095,4.093,13.577-2.097,10.083c0,0,2.596,1.498,4.191,7.188c1.698,5.69,5.791,6.39,5.791,6.39s6.688,1.297,11.68-2.994
	C114.88,73.093,115.58,66.704,113.783,61.812z M100.705,65.805c-1.268,0-2.296-1.028-2.296-2.296c0-1.268,1.028-2.296,2.296-2.296
	s2.296,1.028,2.296,2.296C103.001,64.777,101.973,65.805,100.705,65.805z"/>
</svg>
