<?xml version="1.0" encoding="utf-8"?>
<!-- Generator: Adobe Illustrator 16.0.0, SVG Export Plug-In . SVG Version: 6.00 Build 0)  -->
<!DOCTYPE svg PUBLIC "-//W3C//DTD SVG 1.1//EN" "http://www.w3.org/Graphics/SVG/1.1/DTD/svg11.dtd">
<svg version="1.1" id="python" xmlns="http://www.w3.org/2000/svg" xmlns:xlink="http://www.w3.org/1999/xlink" x="0px" y="0px"
	 width="150px" height="150px" viewBox="0 0 150 150" enable-background="new 0 0 150 150" xml:space="preserve">
<g id="layer1" transform="translate(-473.36088,-251.72485)" >
	<g id="g1894" transform="translate(428.42338,184.2561)">
		<path id="path8615" d="M118.944,80.046c-31.966,0-29.97,13.863-29.97,13.863l0.036,14.362h30.505v4.312H76.893
			c0,0-20.456-2.319-20.456,29.935s17.854,31.11,17.854,31.11h10.656V158.66c0,0-0.574-17.854,17.569-17.854
			c18.143,0,30.256,0,30.256,0s16.998,0.275,16.998-16.429s0-27.619,0-27.619S152.352,80.046,118.944,80.046z M102.124,89.703
			c3.035,0,5.488,2.453,5.488,5.488c0,3.035-2.453,5.488-5.488,5.488s-5.488-2.453-5.488-5.488
			C96.635,92.156,99.088,89.703,102.124,89.703z"/>
		<path id="path8620" opacity="0.5" d="M119.852,205.311c31.968,0,29.972-13.862,29.972-13.862l-0.036-14.362h-30.505v-4.312h42.623
			c0,0,20.455,2.32,20.455-29.935c0-32.254-17.854-31.111-17.854-31.111h-10.655v14.967c0,0,0.574,17.854-17.569,17.854
			c-18.144,0-30.257,0-30.257,0s-16.999-0.274-16.999,16.43c0,16.703,0,27.618,0,27.618S86.445,205.311,119.852,205.311z
			 M136.673,195.653c-3.035,0-5.487-2.453-5.487-5.488c0-3.034,2.452-5.487,5.487-5.487c3.034,0,5.488,2.453,5.488,5.487
			C142.161,193.2,139.707,195.653,136.673,195.653z"/>
	</g>
</g>
</svg>
