<?xml version="1.0" encoding="utf-8"?>
<!-- Generator: Adobe Illustrator 16.0.0, SVG Export Plug-In . SVG Version: 6.00 Build 0)  -->
<!DOCTYPE svg PUBLIC "-//W3C//DTD SVG 1.1//EN" "http://www.w3.org/Graphics/SVG/1.1/DTD/svg11.dtd">
<svg version="1.1" id="react" xmlns="http://www.w3.org/2000/svg" xmlns:xlink="http://www.w3.org/1999/xlink" x="0px" y="0px"
	 width="150px" height="150px" viewBox="0 0 150 150" enable-background="new 0 0 150 150" xml:space="preserve">
<g>
	<path d="M74.925,32.587c2.235-1.839,4.345-3.698,6.578-5.39c4.573-3.461,9.409-6.457,15.09-7.786
		c7.546-1.765,12.88,1.166,15.319,8.523c2.001,6.035,1.748,12.219,0.919,18.405c-0.334,2.491-0.797,4.963-1.172,7.265
		c4.266,1.827,8.481,3.282,12.338,5.394c3.423,1.874,6.771,4.137,9.572,6.83c6.004,5.77,5.884,12.397,0.123,18.399
		c-4.343,4.525-9.805,7.275-15.505,9.617c-2.07,0.85-4.202,1.552-6.38,2.348c0.483,3.187,1.301,6.294,1.349,9.416
		c0.079,4.967,0.254,10.064-0.701,14.889c-1.729,8.747-7.919,12.146-16.563,9.811c-6.828-1.846-12.423-5.874-17.769-10.303
		c-0.971-0.809-1.912-1.653-3.023-2.617c-0.876,0.767-1.707,1.5-2.547,2.226c-4.664,4.023-9.609,7.614-15.401,9.868
		c-11.262,4.384-18.876-0.345-20.224-12.368c-0.7-6.247-0.043-12.366,1.088-18.482c0.139-0.75,0.265-1.506,0.383-2.178
		c-4.132-1.756-8.281-3.172-12.08-5.236c-3.43-1.861-6.801-4.085-9.626-6.755c-6.374-6.022-6.25-12.775-0.004-18.986
		c4.851-4.823,10.896-7.678,17.211-10.012c4.366-1.613,4.334-1.577,3.573-6.275c-1.041-6.429-1.628-12.887-0.062-19.312
		c1.291-5.292,3.813-9.64,9.745-10.674c3.417-0.595,6.713,0.195,9.91,1.456c6.125,2.413,11.308,6.262,16.224,10.53
		C73.813,31.642,74.343,32.089,74.925,32.587z M75.06,54.354c-3.324,0.171-6.778,0.272-10.213,0.583
		c-0.822,0.075-1.909,0.656-2.314,1.337c-3.42,5.742-6.755,11.536-9.981,17.387c-0.41,0.747-0.399,2.115,0.015,2.863
		c3.202,5.784,6.501,11.52,9.916,17.18c0.467,0.773,1.73,1.489,2.638,1.505c6.614,0.124,13.229,0.029,19.846,0.083
		c1.304,0.012,2.097-0.495,2.704-1.569c3.296-5.816,6.648-11.598,9.86-17.458c0.378-0.688,0.323-1.965-0.068-2.667
		c-3.258-5.834-6.603-11.621-10.039-17.351c-0.409-0.681-1.494-1.259-2.314-1.334C81.814,54.611,78.5,54.525,75.06,54.354z
		 M110.355,59.416c-1.955,5.112-3.844,10.022-5.697,14.945c-0.136,0.361-0.135,0.865,0,1.227c1.89,4.982,3.811,9.95,5.771,15.039
		c6.262-1.948,12.289-4.423,17.438-8.625c6.074-4.958,6.033-9.12-0.104-14.048C122.632,63.833,116.66,61.381,110.355,59.416z
		 M79.145,36.442c3.471,4.288,6.772,8.403,10.14,12.464c0.342,0.415,1.058,0.627,1.635,0.726c3.47,0.59,6.952,1.099,10.422,1.679
		c1.563,0.261,3.107,0.621,4.779,0.959c0.331-1.655,0.658-3.017,0.867-4.397c0.896-5.947,1.483-11.912-0.223-17.81
		c-1.404-4.855-4.052-6.402-8.915-5.197C90.404,26.708,84.765,31.498,79.145,36.442z M39.635,59.44
		c-1.107,0.354-2.185,0.65-3.228,1.042c-5.822,2.184-11.503,4.648-15.991,9.14c-3.718,3.721-3.817,6.928-0.165,10.612
		c5.401,5.447,12.329,8.107,19.455,10.449c1.521-4.15,2.763-8.189,4.482-12.014c1.133-2.522,1.165-4.595,0.012-7.13
		C42.436,67.661,41.161,63.562,39.635,59.44z M43.808,97.938c-0.411,2.433-0.972,4.896-1.218,7.389
		c-0.528,5.332-0.904,10.69,1.069,15.85c1.387,3.627,3.635,4.924,7.44,4.21c8.042-1.501,13.893-6.678,19.792-11.743
		c-3.5-4.326-6.844-8.475-10.217-12.601c-0.244-0.299-0.677-0.55-1.057-0.612C54.43,99.59,49.238,98.787,43.808,97.938z
		 M70.942,36.267c-3.388-2.504-6.56-5.229-10.099-7.343c-2.912-1.742-6.162-3.101-9.434-4.013c-4.145-1.155-6.702,0.374-8.006,4.43
		c-2.456,7.647-1.199,15.247,0.416,22.797c5.443-0.874,10.645-1.694,15.837-2.568c0.423-0.07,0.875-0.432,1.161-0.783
		C64.107,44.755,67.366,40.699,70.942,36.267z M106.216,97.919c-5.367,0.835-10.434,1.608-15.494,2.435
		c-0.508,0.085-1.101,0.378-1.419,0.768c-3.336,4.074-6.624,8.188-10.047,12.441c4.964,4.427,10.128,8.631,16.565,10.891
		c1.44,0.507,3.002,0.739,4.526,0.914c2.829,0.324,4.723-1.063,5.831-3.579c0.423-0.96,0.779-1.971,1.005-2.992
		C108.731,111.742,107.715,104.818,106.216,97.919z M82.225,101.302c-4.989,0-9.463,0-14.383,0c2.528,2.903,4.764,5.473,7.217,8.29
		C77.491,106.776,79.72,104.203,82.225,101.302z M55.912,55.704c-3.834,0.748-7.16,1.396-10.797,2.104
		c1.248,3.558,2.385,6.796,3.644,10.384C51.23,63.877,53.446,60.008,55.912,55.704z M101.23,81.856
		c-2.449,4.289-4.666,8.167-7.155,12.519c3.841-0.759,7.212-1.428,10.814-2.14C103.61,88.605,102.477,85.392,101.23,81.856z
		 M82.256,48.862c-2.649-3.02-4.926-5.615-7.364-8.396c-2.459,2.887-4.652,5.462-7.15,8.396
		C72.765,48.862,77.165,48.862,82.256,48.862z M48.749,81.958c-1.256,3.654-2.356,6.858-3.555,10.35
		c3.667,0.685,6.985,1.305,10.722,2.004C53.435,90.032,51.228,86.229,48.749,81.958z M94.031,55.683
		c2.504,4.3,4.737,8.14,7.222,12.409c1.246-3.662,2.341-6.875,3.521-10.336C101.122,57.052,97.83,56.417,94.031,55.683z"/>
	<path d="M75.011,63.406c6.485,0.014,11.747,5.294,11.668,11.71C86.6,81.582,81.313,86.763,74.85,86.707
		c-6.332-0.055-11.538-5.3-11.566-11.647C63.256,68.629,68.526,63.394,75.011,63.406z"/>
</g>
</svg>
