<?xml version="1.0" encoding="utf-8"?>
<!-- Generator: Adobe Illustrator 16.0.0, SVG Export Plug-In . SVG Version: 6.00 Build 0)  -->
<!DOCTYPE svg PUBLIC "-//W3C//DTD SVG 1.1//EN" "http://www.w3.org/Graphics/SVG/1.1/DTD/svg11.dtd">
<svg version="1.1" id="react-router" xmlns="http://www.w3.org/2000/svg" xmlns:xlink="http://www.w3.org/1999/xlink" x="0px"
	 y="0px" width="150px" height="150px" viewBox="0 0 150 150" enable-background="new 0 0 150 150" xml:space="preserve">
<path d="M50.479,63.749c-6.325-0.014-11.458,5.078-11.472,11.379c-0.013,6.324,5.078,11.456,11.378,11.472
	c6.324,0.013,11.457-5.078,11.471-11.38C61.871,68.896,56.779,63.764,50.479,63.749z M23.436,86.604
	C17.118,86.6,12.003,91.703,12,98.016c-0.003,6.319,5.101,11.433,11.413,11.437c6.317,0.002,11.433-5.103,11.436-11.414
	C34.852,91.721,29.748,86.606,23.436,86.604z M126.598,109.452c6.318,0.002,11.432-5.102,11.437-11.414
	c0.003-6.317-5.102-11.432-11.414-11.435c-6.317-0.004-11.433,5.1-11.436,11.412C115.182,104.333,120.286,109.448,126.598,109.452z"
	/>
<path opacity="0.5" d="M77.787,40.548c-0.597,0.381-0.126,0.549,0.167,0.62c6.454,1.561,8.974,6.28,9.909,12.288
	c0.194,1.252,0.412,2.501,0.642,3.747c0.536,2.892,2.396,4.487,5.146,5.174c2.699,0.676,5.495,0.589,8.23,1.006
	c5.678,0.865,9.687,4.19,10.914,9.15c1.396,5.642-1.752,11.424-7.279,13.392c-2.405,0.855-4.888,1.253-7.432,1.382
	c-1.319,0.066-2.67,0.135-3.942,0.452c-3.247,0.808-5.066,2.995-5.629,6.27c-0.605,3.514-1.09,7.045-3.155,10.134
	c-2.942,4.401-8.451,6.36-13.51,4.671c-5.073-1.693-8.278-6.457-7.871-11.698c0.434-5.594,4.97-10.016,11.231-10.881
	c2.11-0.292,4.238-0.45,6.358-0.685c4.598-0.508,6.539-2.526,7.326-7.073c0.499-2.883,0.058-5.604-0.637-8.348
	c-0.802-3.164-2.95-4.835-6.063-5.372c-3.392-0.584-6.877-0.363-10.207-1.594c-4.928-1.822-8.131-6.054-8.044-11.097
	c0.083-4.929,3.409-9.223,8.311-10.729c0.385-0.118,0.805-0.155,1.154-0.335c0.244-0.126,0.153-0.37-0.121-0.475
	C74.786,40.548,76.286,40.548,77.787,40.548z"/>
<path d="M50.479,63.749c6.3,0.015,11.391,5.146,11.378,11.471c-0.014,6.302-5.147,11.393-11.471,11.38
	c-6.3-0.016-11.392-5.147-11.378-11.472C39.022,68.827,44.155,63.735,50.479,63.749z"/>
<path d="M23.436,86.604c6.312,0.003,11.416,5.117,11.413,11.435c-0.003,6.312-5.119,11.416-11.436,11.414
	c-6.312-0.004-11.417-5.117-11.413-11.437C12.003,91.703,17.118,86.6,23.436,86.604z"/>
<path d="M126.598,109.452c-6.312-0.004-11.416-5.119-11.413-11.437c0.003-6.313,5.118-11.416,11.436-11.412
	c6.313,0.003,11.417,5.117,11.414,11.435C138.029,104.351,132.916,109.454,126.598,109.452z"/>
</svg>
