<?xml version="1.0" encoding="utf-8"?>
<!-- Generator: Adobe Illustrator 16.0.0, SVG Export Plug-In . SVG Version: 6.00 Build 0)  -->
<!DOCTYPE svg PUBLIC "-//W3C//DTD SVG 1.1//EN" "http://www.w3.org/Graphics/SVG/1.1/DTD/svg11.dtd">
<svg version="1.1" id="Layer_25" xmlns="http://www.w3.org/2000/svg" xmlns:xlink="http://www.w3.org/1999/xlink" x="0px" y="0px"
	 width="150px" height="150px" viewBox="0 0 150 150" enable-background="new 0 0 150 150" xml:space="preserve">
<g opacity="0.7">
	<path d="M97.616,97.083c4.327-0.449,7.61-4.179,7.46-8.655c-0.148-4.477-3.879-8.057-8.354-8.057h-0.299
		c-4.625,0.148-8.206,4.029-8.057,8.654c0.149,2.238,1.044,4.178,2.387,5.521c-5.073,9.997-12.831,17.307-24.47,23.427
		c-7.908,4.176-16.114,5.668-24.32,4.624c-6.714-0.895-11.937-3.878-15.219-8.804c-4.773-7.311-5.222-15.218-1.193-23.127
		c2.835-5.67,7.312-9.847,10.146-11.937c-0.596-1.939-1.492-5.223-1.939-7.609c-21.635,15.667-19.397,36.854-12.831,46.853
		c4.923,7.46,14.92,12.085,25.96,12.085c2.984,0,5.968-0.301,8.953-1.047C74.938,125.281,89.41,113.942,97.616,97.083z"/>
	<path d="M123.877,78.581c-11.34-13.28-28.05-20.591-47.149-20.591h-2.387c-1.344-2.685-4.178-4.476-7.312-4.476h-0.297
		c-4.626,0.148-8.207,4.028-8.058,8.653c0.148,4.477,3.878,8.058,8.355,8.058h0.298c3.283-0.15,6.119-2.238,7.312-5.073h2.686
		c11.339,0,22.082,3.282,31.78,9.698c7.46,4.924,12.832,11.339,15.816,19.098c2.535,6.268,2.387,12.384-0.299,17.607
		c-4.178,7.908-11.19,12.233-20.441,12.233c-5.968,0-11.638-1.789-14.622-3.133c-1.642,1.492-4.626,3.879-6.714,5.371
		c6.416,2.983,12.981,4.627,19.246,4.627c14.325,0,24.918-7.908,28.947-15.817C135.366,106.184,135.067,91.264,123.877,78.581
		L123.877,78.581z"/>
	<path d="M48.081,99.618c0.149,4.477,3.879,8.058,8.355,8.058h0.299c4.625-0.148,8.206-4.028,8.056-8.653
		c-0.148-4.477-3.879-8.058-8.355-8.058h-0.298c-0.299,0-0.746,0-1.045,0.149c-6.117-10.146-8.654-21.188-7.757-33.124
		c0.596-8.952,3.58-16.711,8.802-23.126c4.327-5.521,12.682-8.207,18.352-8.356c15.816-0.298,22.531,19.396,22.979,27.306
		c1.939,0.447,5.222,1.492,7.46,2.237c-1.791-24.171-16.711-36.705-31.034-36.705c-13.429,0-25.813,9.698-30.737,24.023
		c-6.863,19.098-2.387,37.45,5.968,51.923C48.378,96.337,47.931,97.978,48.081,99.618z"/>
</g>
</svg>
