<?xml version="1.0" encoding="utf-8"?>
<!-- Generator: Adobe Illustrator 16.0.0, SVG Export Plug-In . SVG Version: 6.00 Build 0)  -->
<!DOCTYPE svg PUBLIC "-//W3C//DTD SVG 1.1//EN" "http://www.w3.org/Graphics/SVG/1.1/DTD/svg11.dtd">
<svg version="1.1" id="Layer_30" xmlns="http://www.w3.org/2000/svg" xmlns:xlink="http://www.w3.org/1999/xlink" x="0px" y="0px"
	 width="150px" height="150px" viewBox="0 0 150 150" enable-background="new 0 0 150 150" xml:space="preserve">
<path opacity="0.9" d="M101.505,95.071c7.987-2.23,29.07-18.021,32.881-21.644c2.026-1.928,3.212-2.308,3.614-1.488V12H12v12.122
	c4.659-1.413,11.573-3.439,15.291-4.194c5.944-1.208,7.399,0.681,8.638,6.007C40.634,44.882,22.46,68.599,22.46,68.599
	s1.703,3.405,6.514,4.769c13.48-12.632,17.265-31.147,17.915-43.749c-0.062-0.588-0.464-4.489,3.158-2.261
	c3.623,2.229,16.625,13.283,18.948,29.584c0.774,6.61-3.878,8.815-4.953,9.551c-13.933,9.971-26.395,12.613-28.083,13.871
	c-0.387,0.386-0.642,0.673-0.402,1.201c7.183,10.181,7.617,21.678,7.292,24.419c0.093,2.646-1.625,3.297-2.957,0.696
	C31.613,91.543,21.9,83.172,12,79.675V138h126V74.134c-0.146,0.718-0.392,1.57-0.737,2.545
	c-3.063,9.752-30.705,32.918-32.602,34.814c-1.895,1.896-2.677,2.664-3.279,4.785c-1.897,8.188-3.208,9.257-4.121,10.526
	c-1.237,2.042-4.767,4.984-5.757,4.117c-0.991-0.866-5.418-4.365-3.81-5.913c3.113-3.111,7.01,2.467,4.77,4.707
	c2.042-1.487,3.715-6.937,1.332-9.244c-5.853-7.29-11.333-0.834-8.825,4.227c-0.93-0.974-3.437-3.575-3.529-2.228
	c-0.093,1.345,4.271,5.247,5.201,6.269c3.391,2.694,1.069,8.498-3.529,3.823c-12.013-12.88-32.509-22.539-35.251-24.676
	c-2.743-2.136-2.273-4.271-0.88-7.802c0.837-4.737-0.186-10.448,0-11.425c3.437,0.232,3.855,4.226,2.88,10.403
	c-0.976,6.177,5.324,8.049,11.456,10.031c6.129,1.98,6.687-5.016,8.188-8.405c2.011-4.539,6.278-5.08,8.034-5.76
	c3.205-1.13,3.863,0.337,6.131-0.372c-1.998-2.832-10.17-1.485-10.867-0.975c-0.696,0.511-3.575,1.626-4.784,1.487
	c-1.207-0.141-1.765,0.695-1.255,0.974c0.511,0.279,1.162,0.79,0.419,2.647c-0.744,1.858-3.298,1.533-3.614,1.161
	c-0.316-0.372-5.815-4.272-8.695-5.852c-2.878-1.579-0.324-3.204,1.394-5.016s-1.703-0.821-8.019-1.687
	c-6.316-0.868-3.22-9.6,4.583-11.456c2.601-0.929,9.412-4.334,13.251-7.493c7.121-6.13,7.021-4.141,10.155,5.883
	c1.486,5.264,8.545,11.146,15.773,8.484c19.738-10.342,1.976,8.859,1.271,9.565C92.122,93.26,93.516,97.3,101.505,95.071z"/>
<path fill="#231F20" d="M59.707,91.51c-0.805-0.031-2.383,0.186-1.703,1.981c2.942,1.641,3.933,2.725,4.305,3.126
	c0.37,0.403,2.414,0.59,2.198-1.331C63.638,93.707,60.511,91.541,59.707,91.51z"/>
</svg>
