<?xml version="1.0" encoding="utf-8"?>
<!-- Generator: Adobe Illustrator 16.0.0, SVG Export Plug-In . SVG Version: 6.00 Build 0)  -->
<!DOCTYPE svg PUBLIC "-//W3C//DTD SVG 1.1//EN" "http://www.w3.org/Graphics/SVG/1.1/DTD/svg11.dtd">
<svg version="1.1" id="sass" xmlns="http://www.w3.org/2000/svg" xmlns:xlink="http://www.w3.org/1999/xlink" x="0px" y="0px"
	 width="150px" height="150px" viewBox="0 0 150 150" enable-background="new 0 0 150 150" xml:space="preserve">
<path d="M120.508,82.076c-4.398,0.023-8.219,1.081-11.418,2.647c-1.176-2.325-2.348-4.397-2.555-5.916
	c-0.232-1.773-0.508-2.855-0.232-4.973c0.279-2.118,1.52-5.133,1.498-5.363c-0.023-0.231-0.277-1.313-2.809-1.335
	c-2.533-0.023-4.719,0.483-4.973,1.151c-0.252,0.668-0.736,2.187-1.059,3.753c-0.438,2.301-5.064,10.52-7.713,14.824
	c-0.852-1.681-1.587-3.154-1.748-4.328c-0.231-1.771-0.507-2.855-0.231-4.972c0.276-2.118,1.52-5.134,1.497-5.364
	c-0.023-0.23-0.275-1.312-2.809-1.334c-2.532-0.023-4.719,0.483-4.973,1.151c-0.254,0.667-0.529,2.232-1.059,3.752
	c-0.53,1.519-6.675,15.24-8.288,18.783c-0.828,1.82-1.542,3.271-2.048,4.26l0,0c0,0-0.023,0.069-0.092,0.185
	c-0.437,0.853-0.691,1.313-0.691,1.313s0,0,0,0.021c-0.346,0.623-0.712,1.198-0.897,1.198c-0.139,0-0.392-1.657,0.047-3.914
	c0.92-4.765,3.106-12.177,3.084-12.431c0-0.138,0.415-1.428-1.427-2.095c-1.795-0.667-2.44,0.437-2.601,0.437
	s-0.277,0.393-0.277,0.393s2.003-8.333-3.821-8.333c-3.638,0-8.656,3.982-11.142,7.573c-1.565,0.853-4.903,2.671-8.472,4.628
	c-1.357,0.759-2.763,1.52-4.074,2.233c-0.093-0.094-0.184-0.208-0.276-0.3c-7.044-7.527-20.074-12.846-19.522-22.951
	c0.208-3.683,1.474-13.351,25.023-25.092c19.382-9.553,34.806-6.906,37.476-1.036c3.821,8.379-8.263,23.94-28.291,26.196
	c-7.643,0.852-11.648-2.094-12.661-3.2c-1.059-1.151-1.22-1.219-1.611-0.99c-0.645,0.345-0.231,1.382,0,1.98
	c0.599,1.565,3.062,4.328,7.228,5.686c3.684,1.197,12.639,1.865,23.481-2.325c12.131-4.697,21.616-17.749,18.831-28.684
	c-2.787-11.096-21.202-14.756-38.628-8.564c-10.358,3.684-21.593,9.485-29.672,17.036c-9.599,8.978-11.119,16.782-10.498,20.05
	c2.233,11.602,18.232,19.153,24.632,24.747c-0.322,0.185-0.621,0.346-0.875,0.483c-3.2,1.588-15.4,7.964-18.438,14.71
	c-3.454,7.643,0.552,13.121,3.2,13.856c8.217,2.281,16.666-1.817,21.201-8.584c4.535-6.768,3.983-15.563,1.887-19.591
	c-0.023-0.046-0.046-0.091-0.092-0.138c0.829-0.484,1.681-0.989,2.509-1.475c1.634-0.967,3.246-1.864,4.627-2.602
	c-0.782,2.143-1.358,4.696-1.635,8.38c-0.346,4.327,1.427,9.945,3.753,12.154c1.036,0.968,2.256,0.99,3.038,0.99
	c2.717,0,3.937-2.256,5.296-4.927c1.657-3.269,3.153-7.066,3.153-7.066s-1.865,10.268,3.2,10.268c1.841,0,3.706-2.395,4.534-3.615
	c0,0.022,0,0.022,0,0.022s0.047-0.069,0.138-0.229c0.185-0.3,0.301-0.483,0.301-0.483s0-0.023,0-0.047
	c0.736-1.29,2.394-4.213,4.855-9.07c3.178-6.261,6.239-14.088,6.239-14.088s0.276,1.91,1.22,5.087
	c0.553,1.865,1.704,3.914,2.625,5.894c-0.736,1.036-1.197,1.611-1.197,1.611s0,0,0.022,0.023c-0.599,0.782-1.242,1.636-1.956,2.463
	c-2.509,2.993-5.502,6.423-5.917,7.412c-0.483,1.175-0.366,2.025,0.553,2.717c0.668,0.507,1.865,0.576,3.085,0.507
	c2.256-0.162,3.845-0.714,4.627-1.06c1.221-0.438,2.648-1.104,3.982-2.094c2.464-1.819,3.96-4.422,3.821-7.852
	c-0.068-1.887-0.691-3.774-1.449-5.547c0.23-0.321,0.436-0.645,0.668-0.967c3.891-5.687,6.906-11.924,6.906-11.924
	s0.275,1.909,1.219,5.087c0.461,1.611,1.404,3.361,2.232,5.064c-3.66,2.97-5.914,6.423-6.721,8.679
	c-1.449,4.189-0.322,6.077,1.816,6.515c0.969,0.206,2.35-0.254,3.363-0.69c1.289-0.415,2.807-1.127,4.26-2.187
	c2.461-1.82,4.832-4.352,4.695-7.781c-0.07-1.565-0.484-3.108-1.059-4.605c3.107-1.287,7.113-2.001,12.223-1.403
	c10.957,1.289,13.123,8.125,12.707,11.003s-2.717,4.443-3.477,4.927s-1.014,0.645-0.943,0.989c0.094,0.508,0.459,0.484,1.105,0.393
	c0.898-0.161,5.754-2.325,5.961-7.619C138.348,89.396,131.902,82.007,120.508,82.076z M35.977,110.575
	c-3.637,3.959-8.701,5.456-10.888,4.189c-2.348-1.358-1.427-7.205,3.039-11.396c2.716-2.555,6.216-4.927,8.541-6.377
	c0.529-0.321,1.312-0.782,2.256-1.358c0.161-0.092,0.253-0.137,0.253-0.137l0,0c0.185-0.115,0.368-0.23,0.552-0.345
	C41.365,101.138,39.799,106.407,35.977,110.575z M62.451,92.573c-1.266,3.084-3.914,10.98-5.525,10.543
	c-1.381-0.368-2.233-6.353-0.276-12.27c0.99-2.971,3.085-6.515,4.304-7.896c1.98-2.209,4.167-2.946,4.697-2.048
	C66.318,82.076,63.234,90.64,62.451,92.573z M84.297,103.024c-0.53,0.276-1.037,0.461-1.266,0.321
	c-0.162-0.091,0.229-0.46,0.229-0.46s2.741-2.946,3.823-4.281c0.621-0.782,1.356-1.704,2.14-2.74c0,0.094,0,0.208,0,0.301
	C89.223,99.686,85.816,102.057,84.297,103.024z M101.146,99.181c-0.389-0.276-0.32-1.198,0.99-4.074
	c0.508-1.129,1.703-3.017,3.754-4.836c0.23,0.738,0.389,1.452,0.367,2.118C106.236,96.833,103.059,98.489,101.146,99.181z"/>
</svg>
