<?xml version="1.0" encoding="utf-8"?>
<!-- Generator: Adobe Illustrator 16.0.0, SVG Export Plug-In . SVG Version: 6.00 Build 0)  -->
<!DOCTYPE svg PUBLIC "-//W3C//DTD SVG 1.1//EN" "http://www.w3.org/Graphics/SVG/1.1/DTD/svg11.dtd">
<svg version="1.1" id="sqlite" xmlns="http://www.w3.org/2000/svg" xmlns:xlink="http://www.w3.org/1999/xlink" x="0px" y="0px"
	 width="150px" height="150px" viewBox="0 0 150 150" enable-background="new 0 0 150 150" xml:space="preserve">
<path id="SQLite" d="M59.988,74.627c-1.668,0-3.023,0.494-4.064,1.48c-1.04,0.985-1.567,2.283-1.567,3.871
	c0,0.819,0.131,1.569,0.389,2.26c0.259,0.688,0.66,1.326,1.2,1.902c0.541,0.573,1.622,1.357,3.232,2.354
	c1.978,1.207,3.271,2.188,3.892,2.949c0.622,0.767,0.93,1.564,0.93,2.4c0,1.116-0.367,2.01-1.124,2.68
	c-0.757,0.675-1.771,1.009-3.026,1.009c-1.325,0-2.479-0.47-3.471-1.396c-0.991-0.929-1.491-2.155-1.503-3.696H54.26v5.591h0.616
	c0.188-0.529,0.449-0.802,0.789-0.802c0.164,0,0.548,0.112,1.146,0.323c1.455,0.521,2.649,0.771,3.589,0.771
	c1.619,0,3.001-0.566,4.151-1.721c1.149-1.15,1.729-2.541,1.729-4.162c0-1.258-0.383-2.375-1.135-3.353s-2.214-2.11-4.4-3.416
	c-1.88-1.131-3.101-2.051-3.664-2.769c-0.564-0.717-0.854-1.51-0.854-2.379c0-0.939,0.346-1.694,1.027-2.26
	c0.682-0.563,1.574-0.845,2.691-0.845c1.258,0,2.307,0.373,3.136,1.125c0.828,0.752,1.308,1.794,1.448,3.136h0.616v-4.844h-0.573
	c-0.069,0.246-0.134,0.404-0.194,0.476c-0.058,0.07-0.17,0.107-0.335,0.107c-0.199,0-0.555-0.084-1.06-0.248
	C61.902,74.814,60.905,74.627,59.988,74.627z M80.129,74.627c-2.031,0-3.878,0.479-5.546,1.438
	c-1.669,0.957-2.991,2.285-3.968,3.979c-0.975,1.69-1.459,3.49-1.459,5.406c0,2.571,0.843,4.864,2.54,6.875
	c1.7,2.008,3.735,3.26,6.098,3.739c0.54,0.279,1.313,1.009,2.324,2.186c1.14,1.326,2.104,2.283,2.897,2.854
	c0.791,0.569,1.646,0.987,2.551,1.267c0.904,0.272,1.884,0.411,2.938,0.411c1.281,0,2.43-0.225,3.438-0.684l-0.229-0.563
	c-0.586,0.212-1.211,0.313-1.869,0.313c-0.895,0-1.798-0.295-2.703-0.887c-0.902-0.593-2.033-1.725-3.384-3.395
	c-0.634-0.801-1.071-1.308-1.317-1.504c2.584-0.504,4.709-1.756,6.367-3.764c1.655-2.004,2.484-4.291,2.484-6.854
	c0-3.047-1.082-5.604-3.23-7.688C85.912,75.677,83.268,74.627,80.129,74.627z M92.702,74.627l0.032,0.66
	c1.354,0,2.111,0.398,2.281,1.199c0.063,0.287,0.092,0.813,0.096,1.578l-0.01,14.584c-0.014,1.09-0.166,1.785-0.465,2.086
	c-0.302,0.3-0.806,0.488-1.535,0.563l-0.033,0.66h13.492l0.347-3.309h-0.616c-0.176,0.898-0.579,1.547-1.223,1.914
	c-0.646,0.367-1.781,0.551-3.426,0.551h-1.276c-1.479,0-2.335-0.535-2.562-1.61c-0.05-0.213-0.063-0.44-0.066-0.692l0.056-14.744
	c0-1.088,0.138-1.814,0.421-2.174c0.288-0.354,0.807-0.556,1.557-0.604l-0.029-0.66L92.702,74.627L92.702,74.627z M80.346,75.427
	c2.293,0,4.164,0.903,5.61,2.726c1.444,1.82,2.162,4.318,2.162,7.48c0,2.996-0.728,5.395-2.185,7.199
	c-1.457,1.804-3.396,2.703-5.808,2.703c-2.313,0-4.188-0.928-5.632-2.789c-1.439-1.863-2.151-4.281-2.151-7.254
	c0-3.057,0.721-5.502,2.173-7.33C75.971,76.336,77.913,75.427,80.346,75.427z M111.372,78.563c-0.329,0-0.58,0.11-0.769,0.336
	c-0.191,0.225-0.25,0.492-0.186,0.82c0.063,0.318,0.244,0.598,0.529,0.833c0.281,0.234,0.59,0.356,0.919,0.356
	c0.317,0,0.563-0.122,0.733-0.356c0.174-0.235,0.229-0.515,0.162-0.833c-0.066-0.328-0.24-0.599-0.509-0.82
	C111.988,78.673,111.689,78.563,111.372,78.563z M120.27,80.8c-0.56,2.151-1.771,3.315-3.631,3.503l0.021,0.616h2.173l-0.043,7.286
	c0.003,1.246,0.041,2.075,0.129,2.498c0.214,1.01,0.874,1.523,1.979,1.523c1.599,0,3.271-0.977,5.025-2.918l-0.527-0.455
	c-1.269,1.278-2.388,1.924-3.361,1.924c-0.602,0-0.975-0.346-1.114-1.026c-0.038-0.165-0.054-0.358-0.054-0.583l0.021-8.249h3.316
	l-0.032-0.983h-3.274V80.8H120.27L120.27,80.8z M133.104,83.546c-1.855,0-3.367,0.899-4.541,2.692
	c-1.168,1.793-1.527,3.779-1.068,5.967c0.271,1.281,0.811,2.273,1.633,2.975c0.822,0.698,1.865,1.047,3.111,1.047
	c1.16,0,2.777-0.293,3.461-0.886c0.683-0.593,1.313-1.552,1.893-2.864l-0.465-0.484c-0.927,1.701-2.796,2.563-4.206,2.563
	c-1.938,0-3.125-1.063-3.565-3.18c-0.06-0.271-0.103-0.563-0.129-0.865c2.305-0.363,4.053-1.011,5.229-1.943
	c1.181-0.938,2.358-1.928,2.144-2.976c-0.135-0.622-0.455-1.11-0.951-1.479C135.141,83.738,133.832,83.546,133.104,83.546z
	 M112.811,83.622l-4,0.919v0.713l1.383-0.173c0.67,0,1.065,0.304,1.189,0.908c0.042,0.202,0.068,0.485,0.075,0.843l-0.043,6.541
	c-0.011,0.904-0.11,1.432-0.313,1.589c-0.203,0.158-0.74,0.238-1.607,0.238l-0.021,0.616h6.346l-0.01-0.616
	c-0.884,0-1.455-0.069-1.709-0.206c-0.25-0.135-0.424-0.381-0.496-0.756c-0.061-0.272-0.084-0.739-0.088-1.385l0.021-9.231H112.811
	L112.811,83.622z M132.086,84.833c0.387,0,0.76,0.147,1.135,0.442c0.37,0.293,0.598,0.619,0.672,0.974
	c0.36,1.737-1.181,2.94-4.647,3.61c-0.101-1.271,0.118-2.42,0.683-3.459C130.479,85.359,131.204,84.833,132.086,84.833z"/>
<linearGradient id="gradient-background_1_" gradientUnits="userSpaceOnUse" x1="-550.335" y1="-83.2461" x2="-547.2646" y2="-83.2461" gradientTransform="matrix(-5.025000e-007 11.4863 -11.4863 -5.025000e-007 -924.4883 6372.9731)">
	<stop  offset="0" style="stop-color:#000000;stop-opacity:0"/>
	<stop  offset="1" style="stop-color:#000000;stop-opacity:0.4"/>
</linearGradient>
<path id="gradient-background" fill="url(#gradient-background_1_)" d="M49.778,50.88H16.605c-1.638,0-2.971,1.333-2.971,2.971
	v35.193c7.513-2.884,18.788-5.371,26.585-5.259C41.787,75.593,46.392,59.538,49.778,50.88z"/>
<path id="feather" d="M59.059,48.413c-2.357-2.102-5.212-1.258-8.029,1.243c-0.418,0.371-0.836,0.783-1.251,1.224
	c-4.819,5.112-9.293,14.583-10.683,21.814c0.542,1.099,0.964,2.5,1.243,3.57c0.071,0.274,0.136,0.532,0.188,0.752
	c0.122,0.521,0.188,0.854,0.188,0.854s-0.043-0.163-0.221-0.679c-0.033-0.101-0.071-0.205-0.116-0.332
	c-0.019-0.053-0.045-0.115-0.074-0.187c-0.313-0.729-1.184-2.273-1.566-2.944c-0.327,0.965-0.616,1.871-0.859,2.686
	c1.105,2.021,1.779,5.483,1.779,5.483s-0.059-0.226-0.336-1.008c-0.247-0.69-1.475-2.845-1.766-3.348
	c-0.497,1.837-0.695,3.076-0.517,3.378c0.346,0.586,0.676,1.595,0.965,2.711c0.654,2.515,1.108,5.575,1.108,5.575
	s0.015,0.203,0.04,0.516c-0.092,2.111-0.037,4.301,0.127,6.279c0.216,2.62,0.624,4.87,1.144,6.074l0.353-0.191
	c-0.763-2.373-1.072-5.482-0.937-9.068c0.205-5.479,1.467-12.092,3.797-18.979c3.938-10.401,9.401-18.746,14.401-22.731
	c-4.558,4.116-10.726,17.438-12.571,22.372c-2.068,5.525-3.533,10.708-4.416,15.676c1.523-4.656,6.449-6.657,6.449-6.657
	s2.416-2.979,5.239-7.236c-1.691,0.386-4.468,1.046-5.398,1.438c-1.372,0.574-1.742,0.771-1.742,0.771s4.444-2.706,8.258-3.932
	C59.099,65.28,64.812,53.546,59.059,48.413"/>
<path opacity="0.4" d="M40.126,83.786c-7.794-0.093-19.008,2.386-26.492,5.258V53.851c0-1.638,1.333-2.971,2.971-2.971h33.173
	c-0.394,1.007-0.805,2.122-1.225,3.304c0.777-1.592,1.6-3.113,2.476-4.528H16.605c-2.307,0-4.194,1.888-4.194,4.194v37.962
	c0,2.308,1.888,4.192,4.194,4.192h22.673C39.202,92.689,39.485,88.449,40.126,83.786z"/>
</svg>
