<?xml version="1.0" encoding="utf-8"?>
<!-- Generator: Adobe Illustrator 16.0.0, SVG Export Plug-In . SVG Version: 6.00 Build 0)  -->
<!DOCTYPE svg PUBLIC "-//W3C//DTD SVG 1.1//EN" "http://www.w3.org/Graphics/SVG/1.1/DTD/svg11.dtd">
<svg version="1.1" id="Layer_26" xmlns="http://www.w3.org/2000/svg" xmlns:xlink="http://www.w3.org/1999/xlink" x="0px" y="0px"
	 width="150px" height="150px" viewBox="0 0 150 150" enable-background="new 0 0 150 150" xml:space="preserve">
<g>
	<g>
		<rect x="48.514" y="97.644" transform="matrix(0.2436 0.9699 -0.9699 0.2436 143.625 12.2845)" width="30.846" height="1.156"/>
	</g>
	<g>
		<rect x="59.596" y="86.888" transform="matrix(0.9622 0.2725 -0.2725 0.9622 26.6727 -17.1322)" width="30.846" height="1.157"/>
	</g>
	<g>
		<rect x="78.198" y="86.981" transform="matrix(0.6963 0.7178 -0.7178 0.6963 97.4478 -25.4343)" width="1.156" height="30.888"/>
	</g>
	<g>
		<path fill="#FFFFFF" stroke="#000000" stroke-width="7" stroke-miterlimit="10" d="M38.015,104.774"/>
	</g>
	<g>
		<rect x="37.431" y="108.399" transform="matrix(0.9622 0.2725 -0.2725 0.9622 31.6987 -10.279)" width="30.847" height="1.157"/>
	</g>
	<g>
		<path fill="#FFFFFF" stroke="#000000" stroke-width="7" stroke-miterlimit="10" d="M38.015,104.774"/>
	</g>
	<g>
		<polygon points="45.211,135.825 37.454,104.915 38.575,104.634 45.845,133.598 67.291,112.766 68.097,113.596 		"/>
	</g>
	<g>
		<rect x="48.519" y="78.576" transform="matrix(0.6963 0.7178 -0.7178 0.6963 82.3989 -6.6838)" width="1.156" height="30.887"/>
	</g>
	<g>
		<rect x="70.694" y="57.041" transform="matrix(0.6967 0.7174 -0.7174 0.6967 73.6259 -29.1397)" width="1.157" height="30.916"/>
	</g>
	<g>
		<rect x="92.87" y="35.534" transform="matrix(0.6965 0.7176 -0.7176 0.6965 64.9455 -51.5837)" width="1.155" height="30.887"/>
	</g>
	<g>
		<rect x="63.185" y="46.196" transform="matrix(0.2436 0.9699 -0.9699 0.2436 104.8232 -40.8604)" width="30.846" height="1.157"/>
	</g>
	<g>
		<rect x="52.085" y="56.961" transform="matrix(0.9624 0.2717 -0.2717 0.9624 18.1763 -16.1813)" width="30.859" height="1.157"/>
	</g>
	<g>
		<rect x="41" y="67.727" transform="matrix(0.2436 0.9699 -0.9699 0.2436 108.9257 -3.0572)" width="30.846" height="1.156"/>
	</g>
	<g>
		<rect x="29.917" y="78.483" transform="matrix(0.9622 0.2725 -0.2725 0.9622 23.2616 -9.3636)" width="30.847" height="1.156"/>
	</g>
	<g>
		<rect x="18.835" y="89.238" transform="matrix(0.2436 0.9699 -0.9699 0.2436 113.0221 34.7107)" width="30.845" height="1.157"/>
	</g>
	<g>
		<rect x="11.32" y="59.321" transform="matrix(0.2436 0.9699 -0.9699 0.2436 78.3246 19.3713)" width="30.847" height="1.156"/>
	</g>
	<g>
		<rect x="22.403" y="48.565" transform="matrix(0.9622 0.2725 -0.2725 0.9622 14.8222 -8.4476)" width="30.846" height="1.157"/>
	</g>
	<g>
		<rect x="41.005" y="48.658" transform="matrix(0.6963 0.7178 -0.7178 0.6963 58.6424 -10.3774)" width="1.156" height="30.887"/>
	</g>
	<g>
		<rect x="63.18" y="27.12" transform="matrix(0.6961 0.718 -0.718 0.6961 49.945 -32.8388)" width="1.157" height="30.902"/>
	</g>
	<g>
		<rect x="44.568" y="27.035" transform="matrix(0.9622 0.2723 -0.2723 0.9622 9.7884 -15.2974)" width="30.866" height="1.156"/>
	</g>
	<g>
		<rect x="33.486" y="37.79" transform="matrix(0.2436 0.9699 -0.9699 0.2436 74.207 -18.4139)" width="30.846" height="1.157"/>
	</g>
	<g>
		<polygon points="22.426,45.081 14.668,14.175 45.309,22.854 44.994,23.966 16.276,15.832 23.547,44.8 		"/>
	</g>
	<g>
		<rect x="33.491" y="18.725" transform="matrix(0.6967 0.7174 -0.7174 0.6967 34.8499 -14.0749)" width="1.157" height="30.901"/>
	</g>
	<g>
		<polygon points="112.447,70.554 111.643,69.725 133.088,48.911 104.373,40.778 104.688,39.665 135.332,48.345 		"/>
	</g>
	<g>
		<rect x="92.865" y="54.601" transform="matrix(0.2436 0.9699 -0.9699 0.2436 135.4271 -63.2866)" width="30.845" height="1.158"/>
	</g>
	<g>
		<rect x="81.781" y="65.357" transform="matrix(0.9622 0.2725 -0.2725 0.9622 21.6472 -23.9938)" width="30.847" height="1.157"/>
	</g>
	<g>
		<rect x="70.682" y="76.124" transform="matrix(0.2428 0.9701 -0.9701 0.2428 139.6072 -25.4589)" width="30.861" height="1.156"/>
	</g>
	<g>
		<rect x="100.374" y="65.447" transform="matrix(0.696 0.718 -0.718 0.696 88.7752 -47.8921)" width="1.156" height="30.915"/>
	</g>
	<g>
		<rect x="74.268" y="35.44" transform="matrix(0.9622 0.2725 -0.2725 0.9622 13.2104 -23.0791)" width="30.847" height="1.157"/>
	</g>
</g>
</svg>
