<?xml version="1.0" encoding="utf-8"?>
<!-- Generator: Adobe Illustrator 16.0.0, SVG Export Plug-In . SVG Version: 6.00 Build 0)  -->
<!DOCTYPE svg PUBLIC "-//W3C//DTD SVG 1.1//EN" "http://www.w3.org/Graphics/SVG/1.1/DTD/svg11.dtd">
<svg version="1.1" id="Layer_1" xmlns="http://www.w3.org/2000/svg" xmlns:xlink="http://www.w3.org/1999/xlink" x="0px" y="0px"
	 width="150px" height="150px" viewBox="0 0 150 150" enable-background="new 0 0 150 150" xml:space="preserve">
<path opacity="0.5" d="M125.695,15H24.305C17.509,15,12,20.023,12,26.521v96.958C12,129.978,17.509,135,24.305,135h101.391
	c6.795,0,12.305-5.022,12.305-11.521V26.521C138,20.023,132.49,15,125.695,15z M85,82H69v43H57V82H41V72h44V82z M125.912,117.022
	c-1.169,2.001-2.755,3.621-4.757,4.86c-2.003,1.239-4.333,2.129-6.991,2.669c-2.657,0.54-5.462,0.811-8.415,0.811
	c-3.03,0-5.911-0.246-8.646-0.736c-2.734-0.491-5.104-1.228-7.104-2.21v-11.781c2,1.793,4.658,3.136,7.277,4.031
	c2.619,0.896,5.263,1.345,7.933,1.345c1.567,0,2.933-0.136,4.102-0.405s2.145-0.645,2.927-1.122
	c0.784-0.479,1.368-1.044,1.753-1.694c0.386-0.65,0.578-1.355,0.578-2.117c0-1.03-0.308-1.951-0.925-2.761
	c-0.616-0.81-1.457-1.559-2.522-2.246s-2.33-1.35-3.794-1.988c-1.464-0.638-3.043-1.287-4.737-1.951
	c-4.313-1.718-7.529-3.816-9.648-6.296c-2.117-2.479-3.177-5.473-3.177-8.982c0-2.749,0.577-5.111,1.732-7.086
	c1.156-1.977,2.729-3.603,4.719-4.879s4.295-2.215,6.913-2.816c2.619-0.602,5.393-0.902,8.319-0.902
	c2.876,0,5.307,0.166,7.525,0.498c2.223,0.331,4.025,0.84,6.025,1.527v11.008c-1-0.614-1.813-1.153-2.904-1.62
	c-1.092-0.466-2.155-0.853-3.311-1.16c-1.155-0.306-2.274-0.533-3.417-0.681c-1.144-0.146-2.213-0.22-3.24-0.22
	c-1.413,0-2.689,0.128-3.845,0.386s-2.128,0.619-2.923,1.086c-0.796,0.466-1.41,1.025-1.847,1.676s-0.654,1.38-0.654,2.189
	c0,0.885,0.245,1.676,0.732,2.375c0.488,0.699,1.182,1.362,2.08,1.988c0.899,0.625,1.99,1.239,3.274,1.841
	c1.283,0.602,2.734,1.221,4.352,1.858c2.209,0.884,4.191,1.823,5.951,2.816c1.759,0.995,3.267,2.118,4.524,3.369
	c1.259,1.252,2.222,2.682,2.89,4.289c0.667,1.607,1.001,3.479,1.001,5.614C127.664,112.551,127.08,115.022,125.912,117.022z"/>
</svg>
