<?xml version="1.0" encoding="utf-8"?>
<!-- Generator: Adobe Illustrator 16.0.0, SVG Export Plug-In . SVG Version: 6.00 Build 0)  -->
<!DOCTYPE svg PUBLIC "-//W3C//DTD SVG 1.1//EN" "http://www.w3.org/Graphics/SVG/1.1/DTD/svg11.dtd">
<svg version="1.1" xmlns="http://www.w3.org/2000/svg" xmlns:xlink="http://www.w3.org/1999/xlink" x="0px" y="0px" width="425px"
	 height="425px" viewBox="0 0 425 425" enable-background="new 0 0 425 425" xml:space="preserve">
<g id="Layer_1">
	<image overflow="visible" width="560" height="560" xlink:href="485A8ECD.jpg"  transform="matrix(1 0 0 1 -7979.5 -7985.0029)">
	</image>
	<g opacity="0.5">
		<path fill-rule="evenodd" clip-rule="evenodd" fill="#FFFFFF" d="M251.32,304.149c10.923,11.725,13.592,25.53,13.527,40.233
			c-0.078,17.499-0.145,34.999-0.171,52.498c-0.017,11.087,6.01,15.446,16.454,11.979
			c102.693-34.088,162.618-144.684,135.043-249.234C387.922,52.508,281.613-14.152,172.489,6.827
			C77.3,25.126,6.681,104.314,2.376,200.752c-3.461,77.524,28.528,138.812,91.902,183.534
			c15.312,10.805,32.151,18.832,49.956,24.733c7.958,2.638,15.225-0.526,15.479-7.388c0.5-13.446,0.146-26.924,0.146-39.74
			c-10.304,0.392-20.149,1.686-29.838,0.941c-19.468-1.495-34.467-10.208-42.237-29.249c-4.876-11.947-12.114-22.181-23.514-28.979
			c-1.829-1.091-3.476-2.624-4.904-4.223c-2.973-3.327-2.31-5.817,2.131-6.692c3.176-0.625,6.678-0.725,9.84-0.09
			c12.758,2.556,21.726,10.535,28.243,21.332c13.814,22.887,35.604,26.574,58.048,17.934c1.217-0.469,2.83-1.663,3.029-2.745
			c1.773-9.665,5.479-18.384,12.377-25.815c-9.173-1.847-17.896-3.191-26.399-5.391c-27.564-7.127-49.398-21.729-60.055-49.255
			c-3.509-9.063-5.818-18.79-7.239-28.427c-4.019-27.248-0.365-52.851,18.508-74.584c0.855-0.985,1.236-3.078,0.842-4.346
			c-4.765-15.336-4.015-30.559,0.596-45.739c2.43-7.998,3.288-8.489,11.703-7.288c0.494,0.071,0.979,0.2,1.473,0.284
			c16.122,2.723,29.999,10.564,43.69,18.932c1.87,1.144,4.698,1.912,6.733,1.417c33.015-8.016,65.963-8.007,98.965,0.039
			c1.803,0.439,4.206-0.058,5.896-0.946c7.653-4.023,14.988-8.677,22.748-12.468c8.855-4.326,18.189-7.591,28.236-7.362
			c1.756,0.04,4.449,1.738,5.043,3.302c6.012,15.84,7.402,32.059,2.446,48.45c-0.896,2.963-0.452,4.807,1.491,7.066
			c7.148,8.306,12.608,17.676,15.332,28.318c7.041,27.516,4.279,54.343-7.888,79.82c-11.565,24.22-32.7,36.516-57.812,42.817
			C269.009,301.038,260.475,302.345,251.32,304.149z M138.215,339.583c-1.8,1.702-3.074,2.908-4.35,4.115
			c1.304,1.025,2.746,3.017,3.878,2.853c1.722-0.249,3.228-1.99,4.825-3.099C141.328,342.351,140.089,341.248,138.215,339.583z
			 M111.958,333.136c-3.067-1.865-4.911-3.155-6.937-4.023c-0.278-0.12-2.258,2.552-2.088,2.747
			c1.379,1.586,2.963,3.098,4.771,4.135C108.162,336.258,109.644,334.738,111.958,333.136z M121.085,336.88
			c-1.86,1.44-3.019,2.338-4.178,3.234c1.404,1.323,2.622,3.221,4.281,3.76c1.052,0.342,2.761-1.338,4.175-2.11
			C124.081,340.3,122.798,338.835,121.085,336.88z M154.697,337.36c-2.043,2.043-3.412,3.411-4.78,4.78
			c1.218,0.899,2.647,2.721,3.607,2.5c1.824-0.42,3.379-2.009,5.046-3.111C157.493,340.37,156.416,339.21,154.697,337.36z
			 M96.792,325.775c1.309-2.245,2.565-3.582,2.292-4.083c-0.927-1.696-2.395-3.098-3.656-4.611c-0.851,0.908-2.581,2.13-2.39,2.666
			C93.668,321.515,94.994,323.034,96.792,325.775z M86.762,304.991c-1.041,1.949-2.128,3.231-1.865,3.632
			c0.895,1.37,2.201,2.513,3.531,3.499c0.161,0.12,2.156-1.635,2.046-1.837C89.613,308.704,88.445,307.291,86.762,304.991z"/>
		<path fill-rule="evenodd" clip-rule="evenodd" d="M251.32,304.149c9.154-1.805,17.688-3.111,26.025-5.203
			c25.111-6.302,46.246-18.598,57.812-42.817c12.167-25.478,14.929-52.305,7.888-79.82c-2.724-10.642-8.184-20.013-15.332-28.318
			c-1.943-2.259-2.387-4.103-1.491-7.066c4.956-16.391,3.565-32.61-2.446-48.45c-0.594-1.564-3.287-3.263-5.043-3.302
			c-10.047-0.229-19.381,3.036-28.236,7.362c-7.76,3.791-15.095,8.445-22.748,12.468c-1.69,0.888-4.094,1.386-5.896,0.946
			c-33.002-8.045-65.95-8.054-98.965-0.039c-2.035,0.494-4.863-0.274-6.733-1.417c-13.691-8.367-27.568-16.208-43.69-18.932
			c-0.493-0.083-0.979-0.213-1.473-0.284c-8.415-1.202-9.273-0.71-11.703,7.288c-4.61,15.18-5.36,30.403-0.596,45.739
			c0.395,1.268,0.014,3.361-0.842,4.346c-18.873,21.733-22.526,47.336-18.508,74.584c1.421,9.637,3.73,19.363,7.239,28.427
			c10.656,27.526,32.49,42.128,60.055,49.255c8.503,2.199,17.227,3.544,26.399,5.391c-6.898,7.432-10.604,16.15-12.377,25.815
			c-0.199,1.082-1.813,2.276-3.029,2.745c-22.444,8.641-44.233,4.953-58.048-17.934c-6.518-10.797-15.485-18.776-28.243-21.332
			c-3.162-0.635-6.664-0.535-9.84,0.09c-4.44,0.875-5.104,3.365-2.131,6.692c1.429,1.599,3.075,3.132,4.904,4.223
			c11.399,6.798,18.638,17.031,23.514,28.979c7.771,19.041,22.77,27.754,42.237,29.249c9.688,0.744,19.534-0.55,29.838-0.941
			c0,12.816,0.354,26.294-0.146,39.74c-0.255,6.861-7.521,10.025-15.479,7.388c-17.805-5.901-34.645-13.929-49.956-24.733
			C30.904,339.563-1.085,278.276,2.376,200.752C6.681,104.314,77.3,25.126,172.489,6.827
			c109.124-20.979,215.433,45.681,243.685,152.8c27.575,104.55-32.35,215.146-135.043,249.234
			c-10.444,3.467-16.471-0.893-16.454-11.979c0.026-17.499,0.093-34.999,0.171-52.498
			C264.912,329.68,262.243,315.874,251.32,304.149z"/>
		<path fill-rule="evenodd" clip-rule="evenodd" d="M138.215,339.583c1.874,1.665,3.113,2.768,4.354,3.869
			c-1.598,1.108-3.104,2.85-4.825,3.099c-1.132,0.164-2.574-1.827-3.878-2.853C135.141,342.491,136.415,341.285,138.215,339.583z"/>
		<path fill-rule="evenodd" clip-rule="evenodd" d="M111.958,333.136c-2.314,1.603-3.796,3.122-4.254,2.858
			c-1.808-1.037-3.392-2.549-4.771-4.135c-0.17-0.195,1.81-2.867,2.088-2.747C107.047,329.98,108.891,331.271,111.958,333.136z"/>
		<path fill-rule="evenodd" clip-rule="evenodd" d="M121.085,336.88c1.713,1.955,2.996,3.42,4.278,4.884
			c-1.414,0.772-3.123,2.452-4.175,2.11c-1.659-0.539-2.877-2.437-4.281-3.76C118.066,339.218,119.225,338.32,121.085,336.88z"/>
		<path fill-rule="evenodd" clip-rule="evenodd" d="M154.697,337.36c1.719,1.85,2.796,3.01,3.873,4.169
			c-1.667,1.103-3.222,2.691-5.046,3.111c-0.96,0.221-2.39-1.601-3.607-2.5C151.285,340.771,152.654,339.403,154.697,337.36z"/>
		<path fill-rule="evenodd" clip-rule="evenodd" d="M96.792,325.775c-1.798-2.741-3.124-4.261-3.754-6.028
			c-0.191-0.536,1.539-1.758,2.39-2.666c1.262,1.514,2.729,2.915,3.656,4.611C99.357,322.193,98.101,323.53,96.792,325.775z"/>
		<path fill-rule="evenodd" clip-rule="evenodd" d="M86.762,304.991c1.684,2.3,2.852,3.713,3.712,5.294
			c0.11,0.202-1.885,1.957-2.046,1.837c-1.33-0.986-2.637-2.129-3.531-3.499C84.634,308.223,85.721,306.94,86.762,304.991z"/>
	</g>
</g>
<g id="Layer_2">
</g>
</svg>
