<?xml version="1.0" encoding="utf-8"?>
<!-- Generator: Adobe Illustrator 16.0.0, SVG Export Plug-In . SVG Version: 6.00 Build 0)  -->
<!DOCTYPE svg PUBLIC "-//W3C//DTD SVG 1.1//EN" "http://www.w3.org/Graphics/SVG/1.1/DTD/svg11.dtd">
<svg version="1.1" id="Layer_1" xmlns="http://www.w3.org/2000/svg" xmlns:xlink="http://www.w3.org/1999/xlink" x="0px" y="0px"
	 width="152.27px" height="153.635px" viewBox="0 0 152.27 153.635" enable-background="new 0 0 152.27 153.635"
	 xml:space="preserve">
<g opacity="0.5">
	<path fill-rule="evenodd" clip-rule="evenodd" d="M152.27,76.784c0,21.247,0.01,42.493-0.004,63.74
		c-0.007,9.248-3.706,13.08-12.837,13.087c-42.119,0.031-84.237,0.032-126.356-0.002c-8.821-0.007-13.058-4.338-13.061-13.207
		c-0.016-42.368-0.016-84.737,0-127.105C0.014,4.262,4.255,0.024,13.383,0.019C55.377-0.005,97.37-0.008,139.364,0.021
		c9.138,0.007,12.895,3.852,12.9,13.023C152.279,34.291,152.27,55.538,152.27,76.784z"/>
	<path fill-rule="evenodd" clip-rule="evenodd" fill="#FEFEFE" d="M83.007,67.354c3.41-3.694,6.916-7.207,11.953-8.556
		c17.142-4.591,31.606,4.901,33.716,22.752c1.747,14.791,0.49,29.705,0.742,44.562c0.029,1.707-0.662,2.474-2.444,2.457
		c-5.996-0.057-11.996-0.113-17.989,0.024c-2.681,0.062-2.652-1.49-2.647-3.369c0.024-10.619-0.006-21.238,0.02-31.857
		c0.007-2.637-0.201-5.24-0.739-7.817c-1.391-6.668-5.313-9.833-11.81-9.534c-5.855,0.27-11.061,4.955-11.427,10.905
		c-0.369,5.976-0.198,11.985-0.223,17.98c-0.027,6.871-0.062,13.743,0.016,20.614c0.024,2.196-0.675,3.132-3.011,3.081
		c-5.745-0.125-11.495-0.125-17.24-0.001c-2.371,0.051-2.959-0.955-2.95-3.12c0.087-21.112,0.136-42.227,0.102-63.34
		c-0.004-2.344,0.889-3.045,3.071-3.013c5.371,0.078,10.75,0.182,16.113-0.04c3.234-0.133,4.256,1.173,3.921,4.165
		c-0.137,1.217-0.022,2.461-0.022,3.693C82.44,67.078,82.724,67.216,83.007,67.354z"/>
	<path fill-rule="evenodd" clip-rule="evenodd" fill="#FEFEFE" d="M46.334,94.095c0,10.356-0.068,20.713,0.048,31.067
		c0.029,2.566-0.718,3.53-3.378,3.447c-5.484-0.171-10.98-0.127-16.468-0.015c-2.283,0.046-3.378-0.477-3.368-3.078
		c0.082-21.086,0.082-42.174,0.003-63.26c-0.01-2.598,1.143-3.165,3.391-3.134c5.489,0.076,10.982,0.121,16.468-0.015
		c2.669-0.067,3.375,1.026,3.349,3.544C46.272,73.132,46.334,83.613,46.334,94.095z"/>
	<path fill-rule="evenodd" clip-rule="evenodd" fill="#FEFEFE" d="M34.882,49.804c-7.493,0.06-12.926-4.981-12.947-12.01
		c-0.02-6.73,5.393-11.833,12.675-11.951c7.599-0.123,13.226,5.096,13.185,12.228C47.756,44.708,42.212,49.746,34.882,49.804z"/>
</g>
</svg>
